<?xml version="1.0" encoding="UTF-8"?>
<svg id="a" data-name="图层 1" xmlns="http://www.w3.org/2000/svg" width="100mm" height="100mm" viewBox="0 0 283.46 283.46">
  <path d="M239.8,152.99c.72-6.29-26.18-12.74-26.9-19.18-.7-6.24,24.18-18.49,22.04-24.67-2.14-6.18-29.21-.26-32.52-5.58-3.42-5.5,13.68-27.34,9.23-31.82-4.53-4.56-26.35,12.58-31.72,9.18-5.39-3.41.58-30.56-5.43-32.69-5.98-2.12-18.27,22.79-24.64,22.06-6.26-.72-12.6-27.81-19.02-27.08-6.21.7-6.48,28.48-12.63,30.63-6.15,2.15-23.53-19.46-28.83-16.13-5.48,3.43,6.29,28.62,1.82,33.09-4.53,4.55-29.56-7.31-32.94-1.92-3.4,5.42,18.07,22.98,15.95,29.02-2.11,6-29.8,6.18-30.54,12.58-.72,6.29,26.19,12.74,26.91,19.18.69,6.24-24.19,18.49-22.05,24.67,2.15,6.18,29.22.26,32.53,5.58,3.42,5.5-13.68,27.34-9.23,31.82,4.52,4.56,26.35-12.58,31.71-9.18,5.4,3.41-.57,30.56,5.44,32.69,5.98,2.12,18.27-22.79,24.63-22.06,6.26.72,12.61,27.8,19.02,27.08,6.21-.7,6.48-28.48,12.63-30.63,6.15-2.15,23.54,19.46,28.84,16.13,5.47-3.43-6.29-28.62-1.83-33.09,4.53-4.55,29.56,7.31,32.94,1.92,3.4-5.42-18.07-22.98-15.95-29.02,2.11-6,29.81-6.18,30.54-12.58ZM163.07,136.86c0,.06.02.11.02.17,0,.33-.23.63-.57.71-7.36,1.67-13.28,2.69-13.37,2.31-.08-.39,5.69-2.04,13.05-3.74.39-.09.78.16.87.55ZM161.45,132.24c.05.11.08.22.08.33,0,.27-.16.52-.42.65-6.8,3.26-12.35,5.57-12.52,5.22-.17-.35,5.1-3.25,11.89-6.54.36-.18.8-.03.97.34ZM158.85,128.09c.11.14.16.3.16.46,0,.21-.1.43-.28.57-5.91,4.69-10.8,8.19-11.04,7.88-.25-.31,4.24-4.3,10.13-9.03.31-.25.77-.2,1.03.12ZM155.38,124.63c.18.14.28.36.28.57,0,.16-.05.32-.16.46-4.72,5.89-8.71,10.38-9.02,10.13-.3-.24,3.18-5.14,7.87-11.05.25-.32.71-.37,1.03-.11ZM150.25,122.36c.18-.36.62-.52.98-.34.26.12.42.38.42.65,0,.11-.03.22-.08.33-3.28,6.79-6.17,12.06-6.53,11.89-.35-.18,1.96-5.72,5.21-12.53ZM145.73,120.95c.09-.39.48-.64.88-.55.34.08.57.38.57.72,0,.05-.01.1-.02.16-1.7,7.35-3.34,13.13-3.73,13.04-.38-.09.64-6.01,2.3-13.37ZM132.24,122.02c.1-.05.21-.07.32-.07.28,0,.54.15.66.41,3.26,6.81,5.58,12.35,5.22,12.52-.35.17-3.25-5.09-6.54-11.88-.18-.37-.02-.81.34-.98ZM128.09,124.63c.14-.11.3-.16.46-.16.21,0,.43.09.57.27,4.7,5.91,8.19,10.8,7.88,11.05-.31.24-4.3-4.25-9.02-10.13-.26-.32-.2-.78.11-1.03ZM124.63,128.09c.14-.18.36-.28.57-.28.16,0,.32.05.46.16,5.89,4.72,10.38,8.71,10.14,9.02-.25.31-5.14-3.18-11.06-7.87-.31-.25-.36-.71-.11-1.03ZM122.02,132.24c.13-.26.39-.42.66-.42.11,0,.22.03.32.08,6.79,3.29,12.06,6.18,11.89,6.53-.17.36-5.72-1.96-12.53-5.21-.36-.18-.52-.61-.34-.98ZM120.4,136.86c.08-.34.39-.57.72-.57.05,0,.11.01.16.02,7.35,1.7,13.13,3.34,13.04,3.73-.08.38-6.01-.64-13.37-2.3-.39-.09-.64-.48-.55-.88ZM119.85,141.74c0-.41.33-.74.74-.74,7.54.02,13.54.34,13.54.73s-6,.72-13.54.74c-.41,0-.74-.33-.74-.73ZM120.4,146.61c-.01-.06-.02-.11-.02-.16,0-.34.23-.64.57-.72,7.36-1.67,13.29-2.69,13.37-2.31.09.39-5.69,2.04-13.04,3.74-.39.09-.79-.16-.88-.55ZM122.02,151.23c-.05-.1-.07-.21-.07-.32,0-.27.15-.54.41-.66,6.81-3.26,12.35-5.58,12.52-5.22.17.35-5.09,3.25-11.88,6.54-.36.18-.8.02-.98-.34ZM124.63,155.38c-.11-.14-.16-.3-.16-.46,0-.22.09-.43.27-.57,5.91-4.69,10.8-8.18,11.05-7.88.24.31-4.25,4.3-10.13,9.03-.32.25-.78.2-1.03-.12ZM128.09,158.84c-.18-.14-.27-.36-.27-.57,0-.16.05-.32.16-.46,4.71-5.89,8.7-10.38,9.01-10.13.31.24-3.18,5.13-7.87,11.05-.25.31-.71.37-1.03.11ZM133.22,161.11c-.17.37-.61.52-.98.34-.26-.12-.41-.38-.41-.66,0-.11.02-.22.07-.32,3.29-6.79,6.18-12.06,6.53-11.88.36.17-1.95,5.71-5.21,12.52ZM137.75,162.52c-.09.39-.49.64-.88.55-.34-.08-.57-.38-.57-.71,0-.06.01-.11.02-.17,1.69-7.35,3.34-13.13,3.72-13.04.38.09-.64,6.01-2.29,13.37ZM140.05,134.32c-.38.09-2.03-5.69-3.73-13.04-.1-.4.15-.79.55-.88.05-.01.11-.02.16-.02.33,0,.64.23.72.57,1.66,7.36,2.68,13.28,2.3,13.37ZM141.74,163.62c-.41,0-.74-.33-.74-.74.02-7.54.34-13.54.73-13.54s.72,6,.74,13.54c0,.41-.33.74-.73.74ZM141.74,134.13c-.39,0-.71-6-.74-13.55,0-.4.33-.73.74-.73s.73.33.73.73c-.02,7.55-.33,13.55-.73,13.55ZM146.61,163.07c-.06.01-.11.02-.16.02-.34,0-.64-.23-.72-.57-1.66-7.36-2.69-13.28-2.31-13.37.39-.09,2.04,5.69,3.74,13.04.09.4-.16.79-.55.88ZM151.23,161.45c-.1.05-.21.07-.31.07-.28,0-.54-.15-.67-.41-3.25-6.81-5.57-12.35-5.22-12.52.36-.17,3.25,5.09,6.55,11.88.17.37.02.81-.35.98ZM155.38,158.84c-.14.11-.3.16-.46.16-.21,0-.43-.09-.57-.27-4.69-5.91-8.18-10.8-7.88-11.05.31-.24,4.31,4.25,9.03,10.13.25.32.2.78-.12,1.03ZM158.85,155.38c-.15.18-.36.28-.58.28-.16,0-.32-.05-.45-.16-5.89-4.72-10.38-8.71-10.14-9.02.25-.31,5.14,3.18,11.05,7.87.32.25.37.71.12,1.03ZM161.45,151.23c-.12.26-.38.42-.65.42-.11,0-.22-.03-.33-.08-6.79-3.29-12.05-6.18-11.88-6.53.17-.35,5.71,1.96,12.52,5.21.37.18.52.61.34.98ZM163.07,146.6c-.08.34-.38.58-.72.58-.05,0-.1-.01-.16-.02-7.35-1.7-13.13-3.35-13.04-3.73.09-.38,6.01.64,13.37,2.3.39.08.64.48.55.87ZM162.89,142.47c-7.55-.02-13.55-.34-13.55-.73s6-.72,13.55-.74c.4,0,.73.33.73.73s-.33.74-.73.74Z" fill="#243e96"/>
</svg>