<?xml version="1.0" encoding="UTF-8"?>
<svg id="a" data-name="图层 1" xmlns="http://www.w3.org/2000/svg" width="100mm" height="100mm" viewBox="0 0 283.46 283.46">
  <g>
    <path d="M175.66,175.68c.91-.91,15.54,12.22,33.04,29.62.94.93.94,2.45,0,3.39h0c-.94.94-2.46.94-3.39,0-17.41-17.49-30.55-32.11-29.64-33.02Z" fill="#4f82c3"/>
    <path d="M157.57,187.04c1.21-.42,8.69,17.75,16.91,41.03.44,1.25-.22,2.62-1.47,3.05h0c-1.25.44-2.62-.22-3.06-1.47-8.1-23.31-13.6-42.18-12.38-42.61Z" fill="#4f82c3"/>
    <path d="M136.34,189.43c1.28.14.13,19.77-2.56,44.3-.14,1.32-1.33,2.26-2.65,2.11h0c-1.32-.15-2.27-1.34-2.12-2.65,2.82-24.52,6.05-43.91,7.33-43.76Z" fill="#4f82c3"/>
    <path d="M116.18,182.37c1.09.68-8.46,17.87-21.53,38.8-.7,1.12-2.18,1.46-3.31.75h0c-1.12-.71-1.46-2.19-.76-3.31,13.18-20.87,24.5-36.93,25.59-36.25Z" fill="#4f82c3"/>
    <path d="M101.08,167.25c.68,1.09-15.37,12.43-36.23,25.62-1.12.71-2.6.37-3.31-.76h0c-.71-1.12-.37-2.61.75-3.31,20.93-13.08,38.1-22.64,38.79-21.55Z" fill="#4f82c3"/>
    <path d="M94.03,147.09c.14,1.28-19.24,4.53-43.76,7.36-1.31.15-2.5-.8-2.65-2.12h0c-.15-1.32.8-2.51,2.11-2.65,24.53-2.71,44.15-3.87,44.3-2.59Z" fill="#4f82c3"/>
    <path d="M96.43,125.86c-.43,1.21-19.3-4.27-42.62-12.35-1.25-.43-1.91-1.8-1.47-3.06h0c.44-1.25,1.81-1.91,3.06-1.47,23.28,8.2,41.46,15.67,41.03,16.89Z" fill="#4f82c3"/>
    <path d="M107.8,107.78c-.91.91-15.54-12.22-33.04-29.62-.94-.93-.94-2.45,0-3.39h0c.94-.94,2.46-.94,3.39,0,17.41,17.49,30.55,32.11,29.64,33.02Z" fill="#4f82c3"/>
    <path d="M125.89,96.42c-1.21.42-8.69-17.75-16.91-41.03-.44-1.25.22-2.62,1.47-3.05h0c1.25-.44,2.62.22,3.06,1.47,8.1,23.31,13.6,42.18,12.38,42.61Z" fill="#4f82c3"/>
    <path d="M147.12,94.04c-1.28-.14-.13-19.77,2.56-44.3.14-1.32,1.33-2.26,2.65-2.11h0c1.32.15,2.27,1.34,2.12,2.65-2.82,24.52-6.05,43.91-7.33,43.76Z" fill="#4f82c3"/>
    <path d="M167.28,101.1c-1.09-.68,8.46-17.87,21.53-38.8.7-1.12,2.18-1.46,3.31-.75h0c1.12.71,1.46,2.19.76,3.31-13.18,20.87-24.5,36.93-25.59,36.25Z" fill="#4f82c3"/>
    <path d="M182.38,116.21c-.68-1.09,15.37-12.43,36.23-25.62,1.12-.71,2.6-.37,3.31.76h0c.71,1.12.37,2.61-.75,3.31-20.93,13.08-38.1,22.64-38.79,21.55Z" fill="#4f82c3"/>
    <path d="M189.43,136.37c-.14-1.28,19.24-4.53,43.76-7.36,1.31-.15,2.5.8,2.65,2.12h0c.15,1.32-.8,2.51-2.11,2.65-24.53,2.71-44.15,3.87-44.3,2.59Z" fill="#4f82c3"/>
    <path d="M187.03,157.6c.43-1.21,19.3,4.27,42.62,12.35,1.25.43,1.91,1.8,1.47,3.06h0c-.44,1.25-1.81,1.91-3.06,1.47-23.28-8.2-41.46-15.67-41.03-16.89Z" fill="#4f82c3"/>
  </g>
  <g>
    <path d="M141.72,167.51c1.29,0,2.34,19.64,2.42,44.34,0,1.32-1.07,2.4-2.4,2.4h0c-1.33,0-2.41-1.08-2.4-2.4.06-24.7,1.1-44.34,2.39-44.34Z" fill="#3c6fb7"/>
    <path d="M135.98,166.86c1.25.29-2.08,19.67-7.51,43.76-.29,1.29-1.58,2.1-2.87,1.8h0c-1.29-.3-2.11-1.58-1.81-2.87,5.55-24.07,10.94-42.98,12.19-42.69Z" fill="#3c6fb7"/>
    <path d="M130.53,164.95c1.16.56-6.41,18.71-17.06,41-.57,1.19-2.01,1.7-3.2,1.12h0c-1.2-.58-1.7-2.01-1.12-3.2,10.77-22.23,20.23-39.47,21.39-38.91Z" fill="#3c6fb7"/>
    <path d="M125.65,161.88c1.01.8-10.41,16.82-25.75,36.17-.82,1.04-2.33,1.21-3.37.38h0c-1.04-.83-1.21-2.34-.38-3.37,15.44-19.27,28.5-33.98,29.51-33.18Z" fill="#3c6fb7"/>
    <path d="M121.57,157.79c.8,1.01-13.89,14.08-33.16,29.53-1.03.83-2.54.66-3.37-.38h0c-.83-1.04-.66-2.55.38-3.37,19.34-15.36,35.35-26.78,36.15-25.78Z" fill="#3c6fb7"/>
    <path d="M118.5,152.9c.56,1.16-16.68,10.63-38.9,21.42-1.19.58-2.63.07-3.2-1.12h0c-.58-1.2-.07-2.63,1.12-3.21,22.28-10.67,40.42-18.25,40.98-17.09Z" fill="#3c6fb7"/>
    <path d="M116.6,147.45c.29,1.25-18.63,6.66-42.69,12.22-1.29.3-2.58-.51-2.87-1.81h0c-.3-1.3.51-2.58,1.81-2.88,24.09-5.44,43.47-8.79,43.76-7.54Z" fill="#3c6fb7"/>
    <path d="M115.95,141.72c0,1.29-19.64,2.34-44.34,2.42-1.32,0-2.4-1.07-2.4-2.4h0c0-1.33,1.08-2.41,2.4-2.4,24.7.06,44.34,1.1,44.34,2.39Z" fill="#3c6fb7"/>
    <path d="M116.6,135.98c-.29,1.25-19.67-2.08-43.76-7.51-1.29-.29-2.1-1.58-1.8-2.87h0c.3-1.29,1.58-2.11,2.87-1.81,24.07,5.55,42.98,10.94,42.69,12.19Z" fill="#3c6fb7"/>
    <path d="M118.51,130.53c-.56,1.16-18.71-6.41-41-17.06-1.19-.57-1.7-2.01-1.12-3.2h0c.58-1.2,2.01-1.7,3.2-1.12,22.23,10.77,39.47,20.23,38.91,21.39Z" fill="#3c6fb7"/>
    <path d="M121.59,125.65c-.8,1.01-16.82-10.41-36.17-25.75-1.04-.82-1.21-2.33-.38-3.37h0c.83-1.04,2.34-1.21,3.37-.38,19.27,15.44,33.98,28.5,33.18,29.51Z" fill="#3c6fb7"/>
    <path d="M125.67,121.57c-1.01.8-14.08-13.89-29.53-33.16-.83-1.03-.66-2.54.38-3.37h0c1.04-.83,2.55-.66,3.37.38,15.36,19.34,26.78,35.35,25.78,36.15Z" fill="#3c6fb7"/>
    <path d="M130.56,118.5c-1.16.56-10.63-16.68-21.42-38.9-.58-1.19-.07-2.63,1.12-3.2h0c1.2-.58,2.63-.07,3.21,1.12,10.67,22.28,18.25,40.42,17.09,40.98Z" fill="#3c6fb7"/>
    <path d="M136.01,116.6c-1.25.29-6.66-18.63-12.22-42.69-.3-1.29.51-2.58,1.81-2.87h0c1.3-.3,2.58.51,2.88,1.81,5.44,24.09,8.79,43.47,7.54,43.76Z" fill="#3c6fb7"/>
    <path d="M141.75,115.96c-1.29,0-2.34-19.64-2.42-44.34,0-1.32,1.07-2.4,2.4-2.4h0c1.33,0,2.41,1.08,2.4,2.4-.06,24.7-1.1,44.34-2.39,44.34Z" fill="#3c6fb7"/>
    <path d="M147.48,116.6c-1.25-.29,2.08-19.67,7.51-43.76.29-1.29,1.58-2.1,2.87-1.8h0c1.29.3,2.11,1.58,1.81,2.87-5.55,24.07-10.94,42.98-12.19,42.69Z" fill="#3c6fb7"/>
    <path d="M152.93,118.51c-1.16-.56,6.41-18.71,17.06-41,.57-1.19,2.01-1.7,3.2-1.12h0c1.2.58,1.7,2.01,1.12,3.2-10.77,22.23-20.23,39.47-21.39,38.91Z" fill="#3c6fb7"/>
    <path d="M157.82,121.59c-1.01-.8,10.41-16.82,25.75-36.17.82-1.04,2.33-1.21,3.37-.38h0c1.04.83,1.21,2.34.38,3.37-15.44,19.27-28.5,33.98-29.51,33.18Z" fill="#3c6fb7"/>
    <path d="M161.9,125.67c-.8-1.01,13.89-14.08,33.16-29.53,1.03-.83,2.54-.66,3.37.38h0c.83,1.04.66,2.55-.38,3.37-19.34,15.36-35.35,26.78-36.15,25.78Z" fill="#3c6fb7"/>
    <path d="M164.96,130.56c-.56-1.16,16.68-10.63,38.9-21.42,1.19-.58,2.63-.07,3.2,1.12h0c.58,1.2.07,2.63-1.12,3.21-22.28,10.67-40.42,18.25-40.98,17.09Z" fill="#3c6fb7"/>
    <path d="M166.87,136.01c-.29-1.25,18.63-6.66,42.69-12.22,1.29-.3,2.58.51,2.87,1.81h0c.3,1.3-.51,2.58-1.81,2.88-24.09,5.44-43.47,8.79-43.76,7.54Z" fill="#3c6fb7"/>
    <path d="M167.51,141.75c0-1.29,19.64-2.34,44.34-2.42,1.32,0,2.4,1.07,2.4,2.4h0c0,1.33-1.08,2.41-2.4,2.4-24.7-.06-44.34-1.1-44.34-2.39Z" fill="#3c6fb7"/>
    <path d="M166.86,147.48c.29-1.25,19.67,2.08,43.76,7.51,1.29.29,2.1,1.58,1.8,2.87h0c-.3,1.29-1.58,2.11-2.87,1.81-24.07-5.55-42.98-10.94-42.69-12.19Z" fill="#3c6fb7"/>
    <path d="M164.95,152.93c.56-1.16,18.71,6.41,41,17.06,1.19.57,1.7,2.01,1.12,3.2h0c-.58,1.2-2.01,1.7-3.2,1.12-22.23-10.77-39.47-20.23-38.91-21.39Z" fill="#3c6fb7"/>
    <path d="M161.88,157.82c.8-1.01,16.82,10.41,36.17,25.75,1.04.82,1.21,2.33.38,3.37h0c-.83,1.04-2.34,1.21-3.37.38-19.27-15.44-33.98-28.5-33.18-29.51Z" fill="#3c6fb7"/>
    <path d="M157.79,161.9c1.01-.8,14.08,13.89,29.53,33.16.83,1.03.66,2.54-.38,3.37h0c-1.04.83-2.55.66-3.37-.38-15.36-19.34-26.78-35.35-25.78-36.15Z" fill="#3c6fb7"/>
    <path d="M152.9,164.97c1.16-.56,10.63,16.68,21.42,38.9.58,1.19.07,2.63-1.12,3.2h0c-1.2.58-2.63.07-3.21-1.12-10.67-22.28-18.25-40.42-17.09-40.98Z" fill="#3c6fb7"/>
    <path d="M147.45,166.87c1.25-.29,6.66,18.63,12.22,42.69.3,1.29-.51,2.58-1.81,2.87h0c-1.3.3-2.58-.51-2.88-1.81-5.44-24.09-8.79-43.47-7.54-43.76Z" fill="#3c6fb7"/>
  </g>
</svg>