<?xml version="1.0" encoding="UTF-8"?>
<svg id="a" data-name="图层 1" xmlns="http://www.w3.org/2000/svg" width="100mm" height="100mm" viewBox="0 0 283.46 283.46">
  <g>
    <path d="M141.72,167.51c1.29,0,2.34,19.64,2.42,44.34,0,1.32-1.07,2.4-2.4,2.4h0c-1.33,0-2.41-1.08-2.4-2.4.06-24.7,1.1-44.34,2.39-44.34Z" fill="#3c6fb7"/>
    <path d="M135.98,166.86c1.25.29-2.08,19.67-7.51,43.76-.29,1.29-1.58,2.1-2.87,1.8h0c-1.29-.3-2.11-1.58-1.81-2.87,5.55-24.07,10.94-42.98,12.19-42.69Z" fill="#3c6fb7"/>
    <path d="M130.53,164.95c1.16.56-6.41,18.71-17.06,41-.57,1.19-2.01,1.7-3.2,1.12h0c-1.2-.58-1.7-2.01-1.12-3.2,10.77-22.23,20.23-39.47,21.39-38.91Z" fill="#3c6fb7"/>
    <path d="M125.65,161.88c1.01.8-10.41,16.82-25.75,36.17-.82,1.04-2.33,1.21-3.37.38h0c-1.04-.83-1.21-2.34-.38-3.37,15.44-19.27,28.5-33.98,29.51-33.18Z" fill="#3c6fb7"/>
    <path d="M121.57,157.79c.8,1.01-13.89,14.08-33.16,29.53-1.03.83-2.54.66-3.37-.38h0c-.83-1.04-.66-2.55.38-3.37,19.34-15.36,35.35-26.78,36.15-25.78Z" fill="#3c6fb7"/>
    <path d="M118.5,152.9c.56,1.16-16.68,10.63-38.9,21.42-1.19.58-2.63.07-3.2-1.12h0c-.58-1.2-.07-2.63,1.12-3.21,22.28-10.67,40.42-18.25,40.98-17.09Z" fill="#3c6fb7"/>
    <path d="M116.6,147.45c.29,1.25-18.63,6.66-42.69,12.22-1.29.3-2.58-.51-2.87-1.81h0c-.3-1.3.51-2.58,1.81-2.88,24.09-5.44,43.47-8.79,43.76-7.54Z" fill="#3c6fb7"/>
    <path d="M115.95,141.71c0,1.29-19.64,2.34-44.34,2.42-1.32,0-2.4-1.07-2.4-2.4h0c0-1.33,1.08-2.41,2.4-2.4,24.7.06,44.34,1.1,44.34,2.39Z" fill="#3c6fb7"/>
    <path d="M116.6,135.98c-.29,1.25-19.67-2.08-43.76-7.51-1.29-.29-2.1-1.58-1.8-2.87h0c.3-1.29,1.58-2.11,2.87-1.81,24.07,5.55,42.98,10.94,42.69,12.19Z" fill="#3c6fb7"/>
    <path d="M118.51,130.53c-.56,1.16-18.71-6.41-41-17.06-1.19-.57-1.7-2.01-1.12-3.2h0c.58-1.2,2.01-1.7,3.2-1.12,22.23,10.77,39.47,20.23,38.91,21.39Z" fill="#3c6fb7"/>
    <path d="M121.59,125.65c-.8,1.01-16.82-10.41-36.17-25.75-1.04-.82-1.21-2.33-.38-3.37h0c.83-1.04,2.34-1.21,3.37-.38,19.27,15.44,33.98,28.5,33.18,29.51Z" fill="#3c6fb7"/>
    <path d="M125.67,121.57c-1.01.8-14.08-13.89-29.53-33.16-.83-1.03-.66-2.54.38-3.37h0c1.04-.83,2.55-.66,3.37.38,15.36,19.34,26.78,35.35,25.78,36.15Z" fill="#3c6fb7"/>
    <path d="M130.56,118.5c-1.16.56-10.63-16.68-21.42-38.9-.58-1.19-.07-2.63,1.12-3.2h0c1.2-.58,2.63-.07,3.21,1.12,10.67,22.28,18.25,40.42,17.09,40.98Z" fill="#3c6fb7"/>
    <path d="M136.01,116.6c-1.25.29-6.66-18.63-12.22-42.69-.3-1.29.51-2.58,1.81-2.87h0c1.3-.3,2.58.51,2.88,1.81,5.44,24.09,8.79,43.47,7.54,43.76Z" fill="#3c6fb7"/>
    <path d="M141.75,115.95c-1.29,0-2.34-19.64-2.42-44.34,0-1.32,1.07-2.4,2.4-2.4h0c1.33,0,2.41,1.08,2.4,2.4-.06,24.7-1.1,44.34-2.39,44.34Z" fill="#3c6fb7"/>
    <path d="M147.48,116.6c-1.25-.29,2.08-19.67,7.51-43.76.29-1.29,1.58-2.1,2.87-1.8h0c1.29.3,2.11,1.58,1.81,2.87-5.55,24.07-10.94,42.98-12.19,42.69Z" fill="#3c6fb7"/>
    <path d="M152.93,118.51c-1.16-.56,6.41-18.71,17.06-41,.57-1.19,2.01-1.7,3.2-1.12h0c1.2.58,1.7,2.01,1.12,3.2-10.77,22.23-20.23,39.47-21.39,38.91Z" fill="#3c6fb7"/>
    <path d="M157.82,121.59c-1.01-.8,10.41-16.82,25.75-36.17.82-1.04,2.33-1.21,3.37-.38h0c1.04.83,1.21,2.34.38,3.37-15.44,19.27-28.5,33.98-29.51,33.18Z" fill="#3c6fb7"/>
    <path d="M161.9,125.67c-.8-1.01,13.89-14.08,33.16-29.53,1.03-.83,2.54-.66,3.37.38h0c.83,1.04.66,2.55-.38,3.37-19.34,15.36-35.35,26.78-36.15,25.78Z" fill="#3c6fb7"/>
    <path d="M164.96,130.56c-.56-1.16,16.68-10.63,38.9-21.42,1.19-.58,2.63-.07,3.2,1.12h0c.58,1.2.07,2.63-1.12,3.21-22.28,10.67-40.42,18.25-40.98,17.09Z" fill="#3c6fb7"/>
    <path d="M166.87,136.01c-.29-1.25,18.63-6.66,42.69-12.22,1.29-.3,2.58.51,2.87,1.81h0c.3,1.3-.51,2.58-1.81,2.88-24.09,5.44-43.47,8.79-43.76,7.54Z" fill="#3c6fb7"/>
    <path d="M167.51,141.75c0-1.29,19.64-2.34,44.34-2.42,1.32,0,2.4,1.07,2.4,2.4h0c0,1.33-1.08,2.41-2.4,2.4-24.7-.06-44.34-1.1-44.34-2.39Z" fill="#3c6fb7"/>
    <path d="M166.86,147.48c.29-1.25,19.67,2.08,43.76,7.51,1.29.29,2.1,1.58,1.8,2.87h0c-.3,1.29-1.58,2.11-2.87,1.81-24.07-5.55-42.98-10.94-42.69-12.19Z" fill="#3c6fb7"/>
    <path d="M164.95,152.93c.56-1.16,18.71,6.41,41,17.06,1.19.57,1.7,2.01,1.12,3.2h0c-.58,1.2-2.01,1.7-3.2,1.12-22.23-10.77-39.47-20.23-38.91-21.39Z" fill="#3c6fb7"/>
    <path d="M161.88,157.82c.8-1.01,16.82,10.41,36.17,25.75,1.04.82,1.21,2.33.38,3.37h0c-.83,1.04-2.34,1.21-3.37.38-19.27-15.44-33.98-28.5-33.18-29.51Z" fill="#3c6fb7"/>
    <path d="M157.79,161.9c1.01-.8,14.08,13.89,29.53,33.16.83,1.03.66,2.54-.38,3.37h0c-1.04.83-2.55.66-3.37-.38-15.36-19.34-26.78-35.35-25.78-36.15Z" fill="#3c6fb7"/>
    <path d="M152.9,164.96c1.16-.56,10.63,16.68,21.42,38.9.58,1.19.07,2.63-1.12,3.2h0c-1.2.58-2.63.07-3.21-1.12-10.67-22.28-18.25-40.42-17.09-40.98Z" fill="#3c6fb7"/>
    <path d="M147.45,166.87c1.25-.29,6.66,18.63,12.22,42.69.3,1.29-.51,2.58-1.81,2.87h0c-1.3.3-2.58-.51-2.88-1.81-5.44-24.09-8.79-43.47-7.54-43.76Z" fill="#3c6fb7"/>
  </g>
  <g>
    <g id="b" data-name="&amp;lt;径向重复&amp;gt;">
      <path d="M141.72,157.46c.76,0,1.38,11.56,1.42,26.11,0,.78-.63,1.41-1.41,1.41h0c-.78,0-1.42-.63-1.41-1.41.03-14.54.65-26.1,1.4-26.1Z" fill="#fff"/>
    </g>
    <g id="c" data-name="&amp;lt;径向重复&amp;gt;">
      <path d="M138.22,157.07c.74.17-1.23,11.58-4.42,25.77-.17.76-.93,1.24-1.69,1.06h0c-.76-.17-1.24-.93-1.06-1.69,3.27-14.17,6.44-25.31,7.18-25.14Z" fill="#fff"/>
    </g>
    <g id="d" data-name="&amp;lt;径向重复&amp;gt;">
      <path d="M134.9,155.9c.68.33-3.77,11.02-10.04,24.14-.34.7-1.18,1-1.89.66h0c-.7-.34-1-1.19-.66-1.89,6.34-13.09,11.91-23.24,12.59-22.91Z" fill="#fff"/>
    </g>
    <g id="e" data-name="&amp;lt;径向重复&amp;gt;">
      <path d="M131.92,154.02c.59.47-6.13,9.9-15.16,21.3-.48.61-1.37.71-1.99.22h0c-.61-.49-.71-1.38-.22-1.99,9.09-11.35,16.78-20.01,17.37-19.53Z" fill="#fff"/>
    </g>
    <g id="f" data-name="&amp;lt;径向重复&amp;gt;">
      <path d="M129.43,151.53c.47.59-8.18,8.29-19.52,17.39-.61.49-1.5.39-1.99-.22h0c-.49-.61-.39-1.5.22-1.99,11.39-9.04,20.81-15.77,21.28-15.18Z" fill="#fff"/>
    </g>
    <g id="g" data-name="&amp;lt;径向重复&amp;gt;">
      <path d="M127.56,148.55c.33.68-9.82,6.26-22.9,12.61-.7.34-1.55.04-1.89-.66h0c-.34-.7-.04-1.55.66-1.89,13.12-6.28,23.8-10.74,24.13-10.06Z" fill="#fff"/>
    </g>
    <g id="h" data-name="&amp;lt;径向重复&amp;gt;">
      <path d="M126.4,145.22c.17.74-10.97,3.92-25.13,7.2-.76.18-1.52-.3-1.69-1.06h0c-.17-.76.3-1.52,1.06-1.69,14.18-3.2,25.59-5.18,25.76-4.44Z" fill="#fff"/>
    </g>
    <g id="i" data-name="&amp;lt;径向重复&amp;gt;">
      <path d="M126,141.72c0,.76-11.56,1.38-26.11,1.42-.78,0-1.41-.63-1.41-1.41h0c0-.78.63-1.42,1.41-1.41,14.54.03,26.1.65,26.1,1.4Z" fill="#fff"/>
    </g>
    <g id="j" data-name="&amp;lt;径向重复&amp;gt;">
      <path d="M126.4,138.22c-.17.74-11.58-1.23-25.77-4.42-.76-.17-1.24-.93-1.06-1.69h0c.17-.76.93-1.24,1.69-1.06,14.17,3.27,25.31,6.44,25.14,7.18Z" fill="#fff"/>
    </g>
    <g id="k" data-name="&amp;lt;径向重复&amp;gt;">
      <path d="M127.57,134.9c-.33.68-11.02-3.77-24.14-10.04-.7-.34-1-1.18-.66-1.89h0c.34-.7,1.19-1,1.89-.66,13.09,6.34,23.24,11.91,22.91,12.59Z" fill="#fff"/>
    </g>
    <g id="l" data-name="&amp;lt;径向重复&amp;gt;">
      <path d="M129.44,131.92c-.47.59-9.9-6.13-21.3-15.16-.61-.48-.71-1.37-.22-1.99h0c.49-.61,1.38-.71,1.99-.22,11.35,9.09,20.01,16.78,19.53,17.37Z" fill="#fff"/>
    </g>
    <g id="m" data-name="&amp;lt;径向重复&amp;gt;">
      <path d="M131.93,129.43c-.59.47-8.29-8.18-17.39-19.52-.49-.61-.39-1.5.22-1.99h0c.61-.49,1.5-.39,1.99.22,9.04,11.39,15.77,20.81,15.18,21.28Z" fill="#fff"/>
    </g>
    <g id="n" data-name="&amp;lt;径向重复&amp;gt;">
      <path d="M134.92,127.56c-.68.33-6.26-9.82-12.61-22.9-.34-.7-.04-1.55.66-1.89h0c.7-.34,1.55-.04,1.89.66,6.28,13.12,10.74,23.8,10.06,24.13Z" fill="#fff"/>
    </g>
    <g id="o" data-name="&amp;lt;径向重复&amp;gt;">
      <path d="M138.24,126.39c-.74.17-3.92-10.97-7.2-25.13-.18-.76.3-1.52,1.06-1.69h0c.76-.17,1.52.3,1.69,1.06,3.2,14.18,5.18,25.59,4.44,25.76Z" fill="#fff"/>
    </g>
    <g id="p" data-name="&amp;lt;径向重复&amp;gt;">
      <path d="M141.74,126c-.76,0-1.38-11.56-1.42-26.11,0-.78.63-1.41,1.41-1.41h0c.78,0,1.42.63,1.41,1.41-.03,14.54-.65,26.1-1.4,26.1Z" fill="#fff"/>
    </g>
    <g id="q" data-name="&amp;lt;径向重复&amp;gt;">
      <path d="M145.24,126.4c-.74-.17,1.23-11.58,4.42-25.77.17-.76.93-1.24,1.69-1.06h0c.76.17,1.24.93,1.06,1.69-3.27,14.17-6.44,25.31-7.18,25.14Z" fill="#fff"/>
    </g>
    <g id="r" data-name="&amp;lt;径向重复&amp;gt;">
      <path d="M148.57,127.56c-.68-.33,3.77-11.02,10.04-24.14.34-.7,1.18-1,1.89-.66h0c.7.34,1,1.19.66,1.89-6.34,13.09-11.91,23.24-12.59,22.91Z" fill="#fff"/>
    </g>
    <g id="s" data-name="&amp;lt;径向重复&amp;gt;">
      <path d="M151.55,129.44c-.59-.47,6.13-9.9,15.16-21.3.48-.61,1.37-.71,1.99-.22h0c.61.49.71,1.38.22,1.99-9.09,11.35-16.78,20.01-17.37,19.53Z" fill="#fff"/>
    </g>
    <g id="t" data-name="&amp;lt;径向重复&amp;gt;">
      <path d="M154.04,131.93c-.47-.59,8.18-8.29,19.52-17.39.61-.49,1.5-.39,1.99.22h0c.49.61.39,1.5-.22,1.99-11.39,9.04-20.81,15.77-21.28,15.18Z" fill="#fff"/>
    </g>
    <g id="u" data-name="&amp;lt;径向重复&amp;gt;">
      <path d="M155.91,134.92c-.33-.68,9.82-6.26,22.9-12.61.7-.34,1.55-.04,1.89.66h0c.34.7.04,1.55-.66,1.89-13.12,6.28-23.8,10.74-24.13,10.06Z" fill="#fff"/>
    </g>
    <g id="v" data-name="&amp;lt;径向重复&amp;gt;">
      <path d="M157.07,138.24c-.17-.74,10.97-3.92,25.13-7.2.76-.18,1.52.3,1.69,1.06h0c.17.76-.3,1.52-1.06,1.69-14.18,3.2-25.59,5.18-25.76,4.44Z" fill="#fff"/>
    </g>
    <g id="w" data-name="&amp;lt;径向重复&amp;gt;">
      <path d="M157.46,141.74c0-.76,11.56-1.38,26.11-1.42.78,0,1.41.63,1.41,1.41h0c0,.78-.63,1.42-1.41,1.41-14.54-.03-26.1-.65-26.1-1.4Z" fill="#fff"/>
    </g>
    <g id="x" data-name="&amp;lt;径向重复&amp;gt;">
      <path d="M157.06,145.24c.17-.74,11.58,1.23,25.77,4.42.76.17,1.24.93,1.06,1.69h0c-.17.76-.93,1.24-1.69,1.06-14.17-3.27-25.31-6.44-25.14-7.18Z" fill="#fff"/>
    </g>
    <g id="y" data-name="&amp;lt;径向重复&amp;gt;">
      <path d="M155.9,148.56c.33-.68,11.02,3.77,24.14,10.04.7.34,1,1.18.66,1.89h0c-.34.7-1.19,1-1.89.66-13.09-6.34-23.24-11.91-22.91-12.59Z" fill="#fff"/>
    </g>
    <g id="z" data-name="&amp;lt;径向重复&amp;gt;">
      <path d="M154.03,151.55c.47-.59,9.9,6.13,21.3,15.16.61.48.71,1.37.22,1.99h0c-.49.61-1.38.71-1.99.22-11.35-9.09-20.01-16.78-19.53-17.37Z" fill="#fff"/>
    </g>
    <g id="aa" data-name="&amp;lt;径向重复&amp;gt;">
      <path d="M151.53,154.03c.59-.47,8.29,8.18,17.39,19.52.49.61.39,1.5-.22,1.99h0c-.61.49-1.5.39-1.99-.22-9.04-11.39-15.77-20.81-15.18-21.28Z" fill="#fff"/>
    </g>
    <g id="ab" data-name="&amp;lt;径向重复&amp;gt;">
      <path d="M148.55,155.91c.68-.33,6.26,9.82,12.61,22.9.34.7.04,1.55-.66,1.89h0c-.7.34-1.55.04-1.89-.66-6.28-13.12-10.74-23.8-10.06-24.13Z" fill="#fff"/>
    </g>
    <g id="ac" data-name="&amp;lt;径向重复&amp;gt;">
      <path d="M145.22,157.07c.74-.17,3.92,10.97,7.2,25.13.18.76-.3,1.52-1.06,1.69h0c-.76.17-1.52-.3-1.69-1.06-3.2-14.18-5.18-25.59-4.44-25.76Z" fill="#fff"/>
    </g>
  </g>
</svg>