<?xml version="1.0" encoding="UTF-8"?>
<svg id="a" data-name="图层 1" xmlns="http://www.w3.org/2000/svg" width="100mm" height="100mm" viewBox="0 0 283.46 283.46">
  <path d="M163.04,163.04c1.58-1.58,26.96,21.23,57.34,51.45,1.63,1.62,1.63,4.26,0,5.89h0c-1.63,1.63-4.27,1.63-5.89,0-30.22-30.38-53.02-55.77-51.45-57.34Z" fill="#a2bce2"/>
  <path d="M157.77,167.25c1.89-1.19,21.56,26.7,44.45,62.92,1.23,1.94.64,4.52-1.31,5.74h0c-1.95,1.23-4.53.64-5.74-1.31-22.7-36.34-39.29-66.17-37.4-67.35Z" fill="#a2bce2"/>
  <path d="M151.69,170.17c2.11-.74,15.08,30.83,29.34,71.23.76,2.17-.38,4.54-2.56,5.31h0c-2.18.76-4.56-.38-5.31-2.55-14.05-40.48-23.58-73.25-21.47-73.99Z" fill="#a2bce2"/>
  <path d="M145.11,171.68c2.22-.25,7.84,33.41,12.75,75.98.26,2.28-1.38,4.35-3.68,4.6h0c-2.29.26-4.36-1.39-4.61-3.67-4.69-42.59-6.69-76.66-4.47-76.91Z" fill="#a2bce2"/>
  <path d="M138.36,171.68c2.22.25.21,34.32-4.48,76.91-.25,2.28-2.32,3.93-4.61,3.67h0c-2.29-.26-3.94-2.32-3.67-4.6,4.91-42.57,10.54-76.23,12.76-75.98Z" fill="#a2bce2"/>
  <path d="M131.78,170.18c2.11.74-7.43,33.5-21.48,73.98-.75,2.17-3.13,3.31-5.31,2.55h0c-2.18-.76-3.32-3.14-2.56-5.31,14.26-40.41,27.24-71.97,29.34-71.23Z" fill="#a2bce2"/>
  <path d="M125.7,167.25c1.89,1.19-14.7,31.01-37.4,67.35-1.22,1.95-3.79,2.53-5.74,1.31h0c-1.95-1.23-2.54-3.8-1.31-5.74,22.89-36.22,42.57-64.1,44.46-62.92Z" fill="#a2bce2"/>
  <path d="M120.43,163.04c1.58,1.58-21.23,26.96-51.45,57.34-1.62,1.63-4.26,1.63-5.89,0h0c-1.63-1.63-1.63-4.27,0-5.89,30.38-30.22,55.77-53.02,57.34-51.45Z" fill="#a2bce2"/>
  <path d="M116.22,157.77c1.19,1.89-26.7,21.56-62.92,44.45-1.94,1.23-4.52.64-5.74-1.31h0c-1.23-1.95-.64-4.53,1.31-5.74,36.34-22.7,66.17-39.29,67.35-37.4Z" fill="#a2bce2"/>
  <path d="M113.29,151.69c.74,2.11-30.82,15.08-71.23,29.34-2.17.76-4.54-.38-5.31-2.56h0c-.76-2.18.38-4.56,2.55-5.31,40.48-14.05,73.25-23.58,73.99-21.47Z" fill="#a2bce2"/>
  <path d="M111.79,145.11c.25,2.22-33.41,7.84-75.98,12.75-2.28.26-4.35-1.38-4.6-3.68h0c-.26-2.29,1.39-4.36,3.67-4.61,42.59-4.69,76.66-6.69,76.91-4.47Z" fill="#a2bce2"/>
  <path d="M111.79,138.36c-.25,2.22-34.32.21-76.91-4.48-2.28-.25-3.93-2.32-3.67-4.61h0c.26-2.29,2.32-3.94,4.6-3.67,42.57,4.91,76.23,10.54,75.98,12.76Z" fill="#a2bce2"/>
  <path d="M113.29,131.78c-.74,2.11-33.5-7.43-73.98-21.48-2.17-.75-3.31-3.13-2.55-5.31h0c.76-2.18,3.14-3.32,5.31-2.56,40.41,14.26,71.97,27.24,71.23,29.34Z" fill="#a2bce2"/>
  <path d="M116.21,125.7c-1.19,1.89-31.01-14.7-67.35-37.4-1.95-1.22-2.53-3.79-1.31-5.74h0c1.23-1.95,3.8-2.54,5.74-1.31,36.22,22.89,64.1,42.57,62.92,44.46Z" fill="#a2bce2"/>
  <path d="M120.42,120.43c-1.58,1.58-26.96-21.23-57.34-51.45-1.63-1.62-1.63-4.26,0-5.89h0c1.63-1.63,4.27-1.63,5.89,0,30.22,30.38,53.02,55.77,51.45,57.34Z" fill="#a2bce2"/>
  <path d="M125.7,116.22c-1.89,1.19-21.56-26.7-44.45-62.92-1.23-1.94-.64-4.52,1.31-5.74h0c1.95-1.23,4.53-.64,5.74,1.31,22.7,36.34,39.29,66.17,37.4,67.35Z" fill="#a2bce2"/>
  <path d="M131.78,113.29c-2.11.74-15.08-30.83-29.34-71.23-.76-2.17.38-4.54,2.56-5.31h0c2.18-.76,4.56.38,5.31,2.55,14.05,40.48,23.58,73.25,21.47,73.99Z" fill="#a2bce2"/>
  <path d="M138.35,111.79c-2.22.25-7.84-33.41-12.75-75.98-.26-2.28,1.38-4.35,3.68-4.6h0c2.29-.26,4.36,1.39,4.61,3.67,4.69,42.59,6.69,76.66,4.47,76.91Z" fill="#a2bce2"/>
  <path d="M145.1,111.79c-2.22-.25-.21-34.32,4.48-76.91.25-2.28,2.32-3.93,4.61-3.67h0c2.29.26,3.94,2.32,3.67,4.6-4.91,42.57-10.54,76.23-12.76,75.98Z" fill="#a2bce2"/>
  <path d="M151.68,113.29c-2.11-.74,7.43-33.5,21.48-73.98.75-2.17,3.13-3.31,5.31-2.55h0c2.18.76,3.32,3.14,2.56,5.31-14.26,40.41-27.24,71.97-29.34,71.23Z" fill="#a2bce2"/>
  <path d="M157.76,116.21c-1.89-1.19,14.7-31.01,37.4-67.35,1.22-1.95,3.79-2.53,5.74-1.31h0c1.95,1.23,2.54,3.8,1.31,5.74-22.89,36.22-42.57,64.1-44.46,62.92Z" fill="#a2bce2"/>
  <path d="M163.04,120.42c-1.58-1.58,21.23-26.96,51.45-57.34,1.62-1.63,4.26-1.63,5.89,0h0c1.63,1.63,1.63,4.27,0,5.89-30.38,30.22-55.77,53.02-57.34,51.45Z" fill="#a2bce2"/>
  <path d="M167.24,125.7c-1.19-1.89,26.7-21.56,62.92-44.45,1.94-1.23,4.52-.64,5.74,1.31h0c1.23,1.95.64,4.53-1.31,5.74-36.34,22.7-66.17,39.29-67.35,37.4Z" fill="#a2bce2"/>
  <path d="M170.17,131.78c-.74-2.11,30.82-15.08,71.23-29.34,2.17-.76,4.54.38,5.31,2.56h0c.76,2.18-.38,4.56-2.55,5.31-40.48,14.05-73.25,23.58-73.99,21.47Z" fill="#a2bce2"/>
  <path d="M171.68,138.36c-.25-2.22,33.41-7.84,75.98-12.75,2.28-.26,4.35,1.38,4.6,3.68h0c.26,2.29-1.39,4.36-3.67,4.61-42.59,4.69-76.66,6.69-76.91,4.47Z" fill="#a2bce2"/>
  <path d="M171.68,145.1c.25-2.22,34.32-.21,76.91,4.48,2.28.25,3.93,2.32,3.67,4.61h0c-.26,2.29-2.32,3.94-4.6,3.67-42.57-4.91-76.23-10.54-75.98-12.76Z" fill="#a2bce2"/>
  <path d="M170.18,151.68c.74-2.11,33.5,7.43,73.98,21.48,2.17.75,3.31,3.13,2.55,5.31h0c-.76,2.18-3.14,3.32-5.31,2.56-40.41-14.26-71.97-27.24-71.23-29.34Z" fill="#a2bce2"/>
  <path d="M167.25,157.76c1.19-1.89,31.01,14.7,67.35,37.4,1.95,1.22,2.53,3.79,1.31,5.74h0c-1.23,1.95-3.8,2.54-5.74,1.31-36.22-22.89-64.1-42.57-62.92-44.46Z" fill="#a2bce2"/>
</svg>