<?xml version="1.0" encoding="UTF-8"?>
<svg id="a" data-name="图层 1" xmlns="http://www.w3.org/2000/svg" width="100mm" height="100mm" viewBox="0 0 283.46 283.46">
  <path d="M206.31,119.15c1.48,4.28-15.75,12.77-15.27,17.09.5,4.46,19.14,8.94,18.64,13.3-.51,4.43-19.7,4.55-21.16,8.72-1.47,4.18,13.41,16.35,11.05,20.11-2.34,3.74-19.68-4.48-22.83-1.33-3.09,3.1,5.06,20.55,1.27,22.93-3.67,2.3-15.72-12.67-19.98-11.18-4.26,1.49-4.45,20.74-8.75,21.23-4.44.5-8.84-18.26-13.18-18.76s-12.92,16.75-17.07,15.28c-4.16-1.47-.03-20.29-3.77-22.65-3.72-2.35-18.84,9.52-21.97,6.37-3.08-3.1,8.76-18.24,6.39-22.05-2.29-3.69-21.05.41-22.54-3.87-1.48-4.28,15.75-12.77,15.27-17.09s-19.14-8.94-18.64-13.3c.51-4.43,19.7-4.55,21.16-8.72,1.47-4.18-13.41-16.35-11.05-20.11,2.34-3.74,19.68,4.48,22.83,1.33,3.09-3.1-5.06-20.55-1.27-22.93,3.67-2.3,15.72,12.67,19.98,11.18,4.26-1.49,4.45-20.74,8.75-21.23,4.44-.5,8.84,18.26,13.18,18.76,4.41.51,12.92-16.75,17.07-15.28,4.16,1.47.03,20.29,3.77,22.65,3.72,2.35,18.84-9.52,21.97-6.37s-8.76,18.24-6.39,22.05c2.29,3.69,21.05-.41,22.54,3.87Z" fill="#243e96"/>
  <g>
    <path d="M173.58,173.6c.85-.85,14.58,11.47,31.01,27.8.88.88.88,2.3,0,3.18h0c-.88.88-2.31.88-3.19,0-16.34-16.42-28.68-30.14-27.82-30.99Z" fill="#4f82c3"/>
    <path d="M156.6,184.26c1.14-.4,8.16,16.66,15.88,38.51.41,1.17-.21,2.46-1.38,2.87h0c-1.18.41-2.46-.21-2.87-1.38-7.6-21.88-12.76-39.59-11.62-39.99Z" fill="#4f82c3"/>
    <path d="M136.67,186.5c1.2.14.12,18.55-2.4,41.58-.14,1.23-1.25,2.12-2.49,1.98h0c-1.24-.14-2.13-1.26-1.99-2.49,2.65-23.01,5.68-41.21,6.88-41.07Z" fill="#4f82c3"/>
    <path d="M117.75,179.87c1.02.64-7.94,16.77-20.21,36.42-.66,1.05-2.05,1.37-3.1.71h0c-1.05-.66-1.37-2.06-.71-3.11,12.37-19.59,23-34.66,24.02-34.02Z" fill="#4f82c3"/>
    <path d="M103.58,165.69c.64,1.02-14.43,11.66-34.01,24.05-1.05.66-2.44.35-3.1-.71h0c-.66-1.06-.35-2.45.71-3.11,19.64-12.28,35.76-21.25,36.4-20.23Z" fill="#4f82c3"/>
    <path d="M96.96,146.76c.13,1.2-18.06,4.25-41.07,6.91-1.23.14-2.35-.75-2.49-1.99h0c-.14-1.24.75-2.36,1.98-2.49,23.03-2.54,41.44-3.63,41.58-2.43Z" fill="#4f82c3"/>
    <path d="M99.21,126.84c-.4,1.14-18.12-4.01-40-11.6-1.17-.41-1.79-1.69-1.38-2.87h0c.41-1.18,1.7-1.8,2.87-1.38,21.85,7.7,38.91,14.71,38.51,15.85Z" fill="#4f82c3"/>
    <path d="M109.89,109.87c-.85.85-14.58-11.47-31.01-27.8-.88-.88-.88-2.3,0-3.18h0c.88-.88,2.31-.88,3.19,0,16.34,16.42,28.68,30.14,27.82,30.99Z" fill="#4f82c3"/>
    <path d="M126.87,99.21c-1.14.4-8.16-16.66-15.88-38.51-.41-1.17.21-2.46,1.38-2.87h0c1.18-.41,2.46.21,2.87,1.38,7.6,21.88,12.76,39.59,11.62,39.99Z" fill="#4f82c3"/>
    <path d="M146.79,96.97c-1.2-.14-.12-18.55,2.4-41.58.14-1.23,1.25-2.12,2.49-1.98h0c1.24.14,2.13,1.26,1.99,2.49-2.65,23.01-5.68,41.21-6.88,41.07Z" fill="#4f82c3"/>
    <path d="M165.71,103.6c-1.02-.64,7.94-16.77,20.21-36.42.66-1.05,2.05-1.37,3.1-.71h0c1.05.66,1.37,2.06.71,3.11-12.37,19.59-23,34.66-24.02,34.02Z" fill="#4f82c3"/>
    <path d="M179.88,117.78c-.64-1.02,14.43-11.66,34.01-24.05,1.05-.66,2.44-.35,3.1.71h0c.66,1.06.35,2.45-.71,3.11-19.64,12.28-35.76,21.25-36.4,20.23Z" fill="#4f82c3"/>
    <path d="M186.5,136.7c-.13-1.2,18.06-4.25,41.07-6.91,1.23-.14,2.35.75,2.49,1.99h0c.14,1.24-.75,2.36-1.98,2.49-23.03,2.54-41.44,3.63-41.58,2.43Z" fill="#4f82c3"/>
    <path d="M184.25,156.63c.4-1.14,18.12,4.01,40,11.6,1.17.41,1.79,1.69,1.38,2.87h0c-.41,1.18-1.7,1.8-2.87,1.38-21.85-7.7-38.91-14.71-38.51-15.85Z" fill="#4f82c3"/>
  </g>
</svg>