<?xml version="1.0" encoding="UTF-8"?>
<svg id="a" data-name="图层 1" xmlns="http://www.w3.org/2000/svg" width="100mm" height="100mm" viewBox="0 0 283.46 283.46">
  <g>
    <g id="b" data-name="&amp;lt;径向重复&amp;gt;">
      <path d="M141.72,157.46c.76,0,1.38,11.56,1.42,26.11,0,.78-.63,1.41-1.41,1.41h0c-.78,0-1.42-.63-1.41-1.41.03-14.54.65-26.1,1.4-26.1Z" fill="#fff"/>
    </g>
    <g id="c" data-name="&amp;lt;径向重复&amp;gt;">
      <path d="M138.22,157.07c.74.17-1.23,11.58-4.42,25.77-.17.76-.93,1.24-1.69,1.06h0c-.76-.17-1.24-.93-1.06-1.69,3.27-14.17,6.44-25.31,7.18-25.14Z" fill="#fff"/>
    </g>
    <g id="d" data-name="&amp;lt;径向重复&amp;gt;">
      <path d="M134.9,155.9c.68.33-3.77,11.02-10.04,24.14-.34.7-1.18,1-1.89.66h0c-.7-.34-1-1.19-.66-1.89,6.34-13.09,11.91-23.24,12.59-22.91Z" fill="#fff"/>
    </g>
    <g id="e" data-name="&amp;lt;径向重复&amp;gt;">
      <path d="M131.92,154.02c.59.47-6.13,9.9-15.16,21.3-.48.61-1.37.71-1.99.22h0c-.61-.49-.71-1.38-.22-1.99,9.09-11.35,16.78-20.01,17.37-19.53Z" fill="#fff"/>
    </g>
    <g id="f" data-name="&amp;lt;径向重复&amp;gt;">
      <path d="M129.43,151.53c.47.59-8.18,8.29-19.52,17.39-.61.49-1.5.39-1.99-.22h0c-.49-.61-.39-1.5.22-1.99,11.39-9.04,20.81-15.77,21.28-15.18Z" fill="#fff"/>
    </g>
    <g id="g" data-name="&amp;lt;径向重复&amp;gt;">
      <path d="M127.56,148.55c.33.68-9.82,6.26-22.9,12.61-.7.34-1.55.04-1.89-.66h0c-.34-.7-.04-1.55.66-1.89,13.12-6.28,23.8-10.74,24.13-10.06Z" fill="#fff"/>
    </g>
    <g id="h" data-name="&amp;lt;径向重复&amp;gt;">
      <path d="M126.4,145.22c.17.74-10.97,3.92-25.13,7.2-.76.18-1.52-.3-1.69-1.06h0c-.17-.76.3-1.52,1.06-1.69,14.18-3.2,25.59-5.18,25.76-4.44Z" fill="#fff"/>
    </g>
    <g id="i" data-name="&amp;lt;径向重复&amp;gt;">
      <path d="M126,141.72c0,.76-11.56,1.38-26.11,1.42-.78,0-1.41-.63-1.41-1.41h0c0-.78.63-1.42,1.41-1.41,14.54.03,26.1.65,26.1,1.4Z" fill="#fff"/>
    </g>
    <g id="j" data-name="&amp;lt;径向重复&amp;gt;">
      <path d="M126.4,138.22c-.17.74-11.58-1.23-25.77-4.42-.76-.17-1.24-.93-1.06-1.69h0c.17-.76.93-1.24,1.69-1.06,14.17,3.27,25.31,6.44,25.14,7.18Z" fill="#fff"/>
    </g>
    <g id="k" data-name="&amp;lt;径向重复&amp;gt;">
      <path d="M127.57,134.9c-.33.68-11.02-3.77-24.14-10.04-.7-.34-1-1.18-.66-1.89h0c.34-.7,1.19-1,1.89-.66,13.09,6.34,23.24,11.91,22.91,12.59Z" fill="#fff"/>
    </g>
    <g id="l" data-name="&amp;lt;径向重复&amp;gt;">
      <path d="M129.44,131.92c-.47.59-9.9-6.13-21.3-15.16-.61-.48-.71-1.37-.22-1.99h0c.49-.61,1.38-.71,1.99-.22,11.35,9.09,20.01,16.78,19.53,17.37Z" fill="#fff"/>
    </g>
    <g id="m" data-name="&amp;lt;径向重复&amp;gt;">
      <path d="M131.93,129.43c-.59.47-8.29-8.18-17.39-19.52-.49-.61-.39-1.5.22-1.99h0c.61-.49,1.5-.39,1.99.22,9.04,11.39,15.77,20.81,15.18,21.28Z" fill="#fff"/>
    </g>
    <g id="n" data-name="&amp;lt;径向重复&amp;gt;">
      <path d="M134.92,127.56c-.68.33-6.26-9.82-12.61-22.9-.34-.7-.04-1.55.66-1.89h0c.7-.34,1.55-.04,1.89.66,6.28,13.12,10.74,23.8,10.06,24.13Z" fill="#fff"/>
    </g>
    <g id="o" data-name="&amp;lt;径向重复&amp;gt;">
      <path d="M138.24,126.39c-.74.17-3.92-10.97-7.2-25.13-.18-.76.3-1.52,1.06-1.69h0c.76-.17,1.52.3,1.69,1.06,3.2,14.18,5.18,25.59,4.44,25.76Z" fill="#fff"/>
    </g>
    <g id="p" data-name="&amp;lt;径向重复&amp;gt;">
      <path d="M141.74,126c-.76,0-1.38-11.56-1.42-26.11,0-.78.63-1.41,1.41-1.41h0c.78,0,1.42.63,1.41,1.41-.03,14.54-.65,26.1-1.4,26.1Z" fill="#fff"/>
    </g>
    <g id="q" data-name="&amp;lt;径向重复&amp;gt;">
      <path d="M145.24,126.4c-.74-.17,1.23-11.58,4.42-25.77.17-.76.93-1.24,1.69-1.06h0c.76.17,1.24.93,1.06,1.69-3.27,14.17-6.44,25.31-7.18,25.14Z" fill="#fff"/>
    </g>
    <g id="r" data-name="&amp;lt;径向重复&amp;gt;">
      <path d="M148.57,127.56c-.68-.33,3.77-11.02,10.04-24.14.34-.7,1.18-1,1.89-.66h0c.7.34,1,1.19.66,1.89-6.34,13.09-11.91,23.24-12.59,22.91Z" fill="#fff"/>
    </g>
    <g id="s" data-name="&amp;lt;径向重复&amp;gt;">
      <path d="M151.55,129.44c-.59-.47,6.13-9.9,15.16-21.3.48-.61,1.37-.71,1.99-.22h0c.61.49.71,1.38.22,1.99-9.09,11.35-16.78,20.01-17.37,19.53Z" fill="#fff"/>
    </g>
    <g id="t" data-name="&amp;lt;径向重复&amp;gt;">
      <path d="M154.04,131.93c-.47-.59,8.18-8.29,19.52-17.39.61-.49,1.5-.39,1.99.22h0c.49.61.39,1.5-.22,1.99-11.39,9.04-20.81,15.77-21.28,15.18Z" fill="#fff"/>
    </g>
    <g id="u" data-name="&amp;lt;径向重复&amp;gt;">
      <path d="M155.91,134.92c-.33-.68,9.82-6.26,22.9-12.61.7-.34,1.55-.04,1.89.66h0c.34.7.04,1.55-.66,1.89-13.12,6.28-23.8,10.74-24.13,10.06Z" fill="#fff"/>
    </g>
    <g id="v" data-name="&amp;lt;径向重复&amp;gt;">
      <path d="M157.07,138.24c-.17-.74,10.97-3.92,25.13-7.2.76-.18,1.52.3,1.69,1.06h0c.17.76-.3,1.52-1.06,1.69-14.18,3.2-25.59,5.18-25.76,4.44Z" fill="#fff"/>
    </g>
    <g id="w" data-name="&amp;lt;径向重复&amp;gt;">
      <path d="M157.46,141.74c0-.76,11.56-1.38,26.11-1.42.78,0,1.41.63,1.41,1.41h0c0,.78-.63,1.42-1.41,1.41-14.54-.03-26.1-.65-26.1-1.4Z" fill="#fff"/>
    </g>
    <g id="x" data-name="&amp;lt;径向重复&amp;gt;">
      <path d="M157.06,145.24c.17-.74,11.58,1.23,25.77,4.42.76.17,1.24.93,1.06,1.69h0c-.17.76-.93,1.24-1.69,1.06-14.17-3.27-25.31-6.44-25.14-7.18Z" fill="#fff"/>
    </g>
    <g id="y" data-name="&amp;lt;径向重复&amp;gt;">
      <path d="M155.9,148.56c.33-.68,11.02,3.77,24.14,10.04.7.34,1,1.18.66,1.89h0c-.34.7-1.19,1-1.89.66-13.09-6.34-23.24-11.91-22.91-12.59Z" fill="#fff"/>
    </g>
    <g id="z" data-name="&amp;lt;径向重复&amp;gt;">
      <path d="M154.03,151.55c.47-.59,9.9,6.13,21.3,15.16.61.48.71,1.37.22,1.99h0c-.49.61-1.38.71-1.99.22-11.35-9.09-20.01-16.78-19.53-17.37Z" fill="#fff"/>
    </g>
    <g id="aa" data-name="&amp;lt;径向重复&amp;gt;">
      <path d="M151.53,154.03c.59-.47,8.29,8.18,17.39,19.52.49.61.39,1.5-.22,1.99h0c-.61.49-1.5.39-1.99-.22-9.04-11.39-15.77-20.81-15.18-21.28Z" fill="#fff"/>
    </g>
    <g id="ab" data-name="&amp;lt;径向重复&amp;gt;">
      <path d="M148.55,155.91c.68-.33,6.26,9.82,12.61,22.9.34.7.04,1.55-.66,1.89h0c-.7.34-1.55.04-1.89-.66-6.28-13.12-10.74-23.8-10.06-24.13Z" fill="#fff"/>
    </g>
    <g id="ac" data-name="&amp;lt;径向重复&amp;gt;">
      <path d="M145.22,157.07c.74-.17,3.92,10.97,7.2,25.13.18.76-.3,1.52-1.06,1.69h0c-.76.17-1.52-.3-1.69-1.06-3.2-14.18-5.18-25.59-4.44-25.76Z" fill="#fff"/>
    </g>
  </g>
  <g>
    <path d="M159.82,159.37c1.34-1.31,22.88,17.58,48.66,42.6,1.38,1.34,1.38,3.53,0,4.88h0c-1.38,1.35-3.62,1.35-5,0-25.65-25.15-45-46.17-43.66-47.48Z" fill="#a2bce2"/>
    <path d="M155.34,162.86c1.6-.98,18.3,22.1,37.73,52.09,1.04,1.61.54,3.74-1.11,4.75h0c-1.66,1.02-3.84.53-4.87-1.08-19.27-30.09-33.34-54.78-31.74-55.77Z" fill="#a2bce2"/>
    <path d="M150.18,165.28c1.79-.61,12.8,25.52,24.9,58.98.65,1.79-.33,3.76-2.17,4.39h0c-1.85.63-3.87-.32-4.5-2.11-11.92-33.52-20.01-60.65-18.22-61.26Z" fill="#a2bce2"/>
    <path d="M144.6,166.52c1.88-.21,6.66,27.66,10.82,62.9.22,1.89-1.18,3.6-3.12,3.81h0c-1.94.21-3.7-1.15-3.91-3.04-3.98-35.26-5.68-63.47-3.79-63.68Z" fill="#a2bce2"/>
    <path d="M138.87,166.53c1.88.21.18,28.41-3.8,63.68-.21,1.89-1.97,3.25-3.91,3.04h0c-1.94-.21-3.34-1.92-3.12-3.81,4.17-35.24,8.94-63.11,10.83-62.9Z" fill="#a2bce2"/>
    <path d="M133.29,165.28c1.79.61-6.3,27.74-18.23,61.25-.64,1.8-2.66,2.74-4.51,2.11h0c-1.85-.63-2.82-2.6-2.17-4.39,12.1-33.46,23.11-59.59,24.9-58.98Z" fill="#a2bce2"/>
    <path d="M128.13,162.86c1.6.98-12.47,25.67-31.74,55.76-1.03,1.61-3.22,2.1-4.87,1.08h0c-1.66-1.02-2.16-3.15-1.11-4.75,19.43-29.99,36.13-53.07,37.73-52.09Z" fill="#a2bce2"/>
    <path d="M123.65,159.38c1.34,1.31-18.02,22.32-43.66,47.47-1.37,1.35-3.62,1.35-5,0h0c-1.38-1.35-1.38-3.54,0-4.88,25.78-25.02,47.33-43.9,48.67-42.59Z" fill="#a2bce2"/>
    <path d="M120.08,155.01c1.01,1.57-22.66,17.85-53.4,36.8-1.65,1.02-3.83.53-4.87-1.09h0c-1.04-1.62-.54-3.75,1.11-4.75,30.84-18.8,56.15-32.53,57.16-30.96Z" fill="#a2bce2"/>
    <path d="M117.59,149.97c.63,1.74-26.16,12.49-60.45,24.29-1.84.63-3.86-.32-4.5-2.12h0c-.65-1.8.33-3.77,2.17-4.39,34.36-11.63,62.16-19.52,62.79-17.78Z" fill="#a2bce2"/>
    <path d="M116.32,144.53c.21,1.84-28.35,6.49-64.48,10.56-1.94.22-3.69-1.15-3.91-3.04h0c-.22-1.9,1.18-3.61,3.11-3.81,36.15-3.88,65.06-5.54,65.27-3.7Z" fill="#a2bce2"/>
    <path d="M116.32,138.94c-.21,1.84-29.12.18-65.27-3.71-1.94-.21-3.33-1.92-3.11-3.81h0c.22-1.9,1.97-3.26,3.91-3.04,36.13,4.07,64.69,8.73,64.48,10.56Z" fill="#a2bce2"/>
    <path d="M117.59,133.49c-.63,1.74-28.43-6.15-62.79-17.78-1.84-.62-2.81-2.59-2.17-4.4h0c.65-1.8,2.66-2.75,4.5-2.12,34.29,11.81,61.08,22.55,60.45,24.29Z" fill="#a2bce2"/>
    <path d="M120.08,128.46c-1.01,1.57-26.32-12.17-57.16-30.97-1.65-1.01-2.15-3.14-1.11-4.76h0c1.04-1.62,3.23-2.1,4.87-1.09,30.74,18.95,54.4,35.24,53.4,36.81Z" fill="#a2bce2"/>
    <path d="M123.65,124.09c-1.34,1.31-22.88-17.58-48.66-42.6-1.38-1.34-1.38-3.53,0-4.88h0c1.38-1.35,3.62-1.35,5,0,25.65,25.15,45,46.17,43.66,47.48Z" fill="#a2bce2"/>
    <path d="M128.12,120.61c-1.6.98-18.3-22.1-37.73-52.09-1.04-1.61-.54-3.74,1.11-4.75h0c1.66-1.02,3.84-.53,4.87,1.08,19.27,30.09,33.34,54.78,31.74,55.77Z" fill="#a2bce2"/>
    <path d="M133.28,118.18c-1.79.61-12.8-25.52-24.9-58.98-.65-1.79.33-3.76,2.17-4.39h0c1.85-.63,3.87.32,4.5,2.11,11.92,33.52,20.01,60.65,18.22,61.26Z" fill="#a2bce2"/>
    <path d="M138.87,116.94c-1.88.21-6.66-27.66-10.82-62.9-.22-1.89,1.18-3.6,3.12-3.81h0c1.94-.21,3.7,1.15,3.91,3.04,3.98,35.26,5.68,63.47,3.79,63.68Z" fill="#a2bce2"/>
    <path d="M144.59,116.94c-1.88-.21-.18-28.41,3.8-63.68.21-1.89,1.97-3.25,3.91-3.04h0c1.94.21,3.34,1.92,3.12,3.81-4.17,35.24-8.94,63.11-10.83,62.9Z" fill="#a2bce2"/>
    <path d="M150.18,118.18c-1.79-.61,6.3-27.74,18.23-61.25.64-1.8,2.66-2.74,4.51-2.11h0c1.85.63,2.82,2.6,2.17,4.39-12.1,33.46-23.11,59.59-24.9,58.98Z" fill="#a2bce2"/>
    <path d="M155.33,120.6c-1.6-.98,12.47-25.67,31.74-55.76,1.03-1.61,3.22-2.1,4.87-1.08h0c1.66,1.02,2.16,3.15,1.11,4.75-19.43,29.99-36.13,53.07-37.73,52.09Z" fill="#a2bce2"/>
    <path d="M159.81,124.09c-1.34-1.31,18.02-22.32,43.66-47.47,1.37-1.35,3.62-1.35,5,0h0c1.38,1.35,1.38,3.54,0,4.88-25.78,25.02-47.33,43.9-48.67,42.59Z" fill="#a2bce2"/>
    <path d="M163.38,128.46c-1.01-1.57,22.66-17.85,53.4-36.8,1.65-1.02,3.83-.53,4.87,1.09h0c1.04,1.62.54,3.75-1.11,4.75-30.84,18.8-56.15,32.53-57.16,30.96Z" fill="#a2bce2"/>
    <path d="M165.87,133.49c-.63-1.74,26.16-12.49,60.45-24.29,1.84-.63,3.86.32,4.5,2.12h0c.65,1.8-.33,3.77-2.17,4.39-34.36,11.63-62.16,19.52-62.79,17.78Z" fill="#a2bce2"/>
    <path d="M167.15,138.94c-.21-1.84,28.35-6.49,64.48-10.56,1.94-.22,3.69,1.15,3.91,3.04h0c.22,1.9-1.18,3.61-3.11,3.81-36.15,3.88-65.06,5.54-65.27,3.7Z" fill="#a2bce2"/>
    <path d="M167.15,144.52c.21-1.84,29.12-.18,65.27,3.71,1.94.21,3.33,1.92,3.11,3.81h0c-.22,1.9-1.97,3.26-3.91,3.04-36.13-4.07-64.69-8.73-64.48-10.56Z" fill="#a2bce2"/>
    <path d="M165.87,149.97c.63-1.74,28.43,6.15,62.79,17.78,1.84.62,2.81,2.59,2.17,4.4h0c-.65,1.8-2.66,2.75-4.5,2.12-34.29-11.81-61.08-22.55-60.45-24.29Z" fill="#a2bce2"/>
    <path d="M163.39,155c1.01-1.57,26.32,12.17,57.16,30.97,1.65,1.01,2.15,3.14,1.11,4.76h0c-1.04,1.62-3.23,2.1-4.87,1.09-30.74-18.95-54.4-35.24-53.4-36.81Z" fill="#a2bce2"/>
  </g>
</svg>