<?xml version="1.0" encoding="UTF-8"?>
<svg id="a" data-name="图层 1" xmlns="http://www.w3.org/2000/svg" width="100mm" height="100mm" viewBox="0 0 283.46 283.46">
  <g>
    <path d="M141.75,85.7c-1.54,0-2.8-22.91-2.89-51.72,0-1.54,1.28-2.8,2.87-2.8h0c1.59,0,2.88,1.26,2.87,2.8-.07,28.81-1.32,51.72-2.85,51.72Z" fill="#4f82c3"/>
    <path d="M166.67,91.26c-1.39-.65,7.66-21.83,20.4-47.82.68-1.39,2.4-1.98,3.83-1.31h0c1.43.67,2.03,2.35,1.34,3.74-12.87,25.93-24.19,46.04-25.57,45.39Z" fill="#4f82c3"/>
    <path d="M186.65,106.81c-.96-1.17,16.61-16.42,39.65-34.45,1.23-.97,3.04-.77,4.03.45h0c.99,1.21.79,2.98-.45,3.94-23.13,17.91-42.27,31.25-43.23,30.07Z" fill="#4f82c3"/>
    <path d="M197.73,129.28c-.34-1.46,22.27-7.76,51.05-14.26,1.54-.35,3.08.6,3.44,2.11h0c.35,1.51-.61,3.02-2.16,3.36-28.81,6.35-51.98,10.26-52.32,8.79Z" fill="#4f82c3"/>
    <path d="M197.72,154.22c.34-1.46,23.52,2.43,52.33,8.76,1.54.34,2.51,1.84,2.16,3.35h0c-.35,1.51-1.9,2.46-3.44,2.11-28.78-6.47-51.4-12.76-51.05-14.22Z" fill="#4f82c3"/>
    <path d="M186.62,176.68c.96-1.17,20.11,12.15,43.25,30.04,1.24.96,1.44,2.72.45,3.93h0c-.99,1.21-2.8,1.41-4.04.45-23.05-18.01-40.63-33.25-39.67-34.42Z" fill="#4f82c3"/>
    <path d="M166.63,192.22c1.39-.65,12.72,19.46,25.61,45.38.69,1.39.09,3.06-1.34,3.74h0c-1.43.67-3.15.09-3.83-1.31-12.75-25.99-21.82-47.16-20.43-47.81Z" fill="#4f82c3"/>
    <path d="M141.71,197.76c1.54,0,2.8,22.91,2.89,51.72,0,1.54-1.28,2.8-2.87,2.8h0c-1.59,0-2.88-1.26-2.87-2.8.07-28.81,1.32-51.72,2.85-51.72Z" fill="#4f82c3"/>
    <path d="M116.8,192.2c1.39.65-7.66,21.83-20.4,47.82-.68,1.39-2.4,1.98-3.83,1.31h0c-1.43-.67-2.03-2.35-1.34-3.74,12.87-25.93,24.19-46.04,25.57-45.39Z" fill="#4f82c3"/>
    <path d="M96.82,176.65c.96,1.17-16.61,16.42-39.65,34.45-1.23.97-3.04.77-4.03-.45h0c-.99-1.21-.79-2.98.45-3.94,23.13-17.91,42.27-31.25,43.23-30.07Z" fill="#4f82c3"/>
    <path d="M85.74,154.18c.34,1.46-22.27,7.76-51.05,14.26-1.54.35-3.08-.6-3.44-2.11h0c-.35-1.51.61-3.02,2.16-3.36,28.81-6.35,51.98-10.26,52.32-8.79Z" fill="#4f82c3"/>
    <path d="M85.74,129.25c-.34,1.46-23.52-2.43-52.33-8.76-1.54-.34-2.51-1.84-2.16-3.35h0c.35-1.51,1.9-2.46,3.44-2.11,28.78,6.47,51.4,12.76,51.05,14.22Z" fill="#4f82c3"/>
    <path d="M96.84,106.79c-.96,1.17-20.11-12.15-43.25-30.04-1.24-.96-1.44-2.72-.45-3.93h0c.99-1.21,2.8-1.41,4.04-.45,23.05,18.01,40.63,33.25,39.67,34.42Z" fill="#4f82c3"/>
    <path d="M116.83,91.24c-1.39.65-12.72-19.46-25.61-45.38-.69-1.39-.09-3.06,1.34-3.74h0c1.43-.67,3.15-.09,3.83,1.31,12.75,25.99,21.82,47.16,20.43,47.81Z" fill="#4f82c3"/>
  </g>
  <g>
    <path d="M141.72,142.84c1.21,0,2.2,17.99,2.27,40.61,0,1.21-1.01,2.2-2.25,2.2h0c-1.25,0-2.26-.99-2.26-2.2.05-22.62,1.03-40.61,2.24-40.61Z" fill="#3c6fb7"/>
    <path d="M141.47,142.81c1.18.26-1.96,18.02-7.05,40.08-.27,1.18-1.48,1.92-2.7,1.65h0c-1.22-.27-1.98-1.45-1.7-2.63,5.21-22.04,10.27-39.37,11.45-39.1Z" fill="#3c6fb7"/>
    <path d="M141.23,142.72c1.09.51-6.02,17.14-16.02,37.55-.54,1.09-1.88,1.55-3.01,1.03h0c-1.12-.53-1.6-1.84-1.05-2.94,10.11-20.36,18.99-36.15,20.08-35.64Z" fill="#3c6fb7"/>
    <path d="M141.01,142.59c.94.74-9.78,15.4-24.18,33.13-.77.95-2.19,1.11-3.17.35h0c-.97-.76-1.14-2.14-.36-3.09,14.5-17.65,26.76-31.12,27.7-30.39Z" fill="#3c6fb7"/>
    <path d="M140.84,142.41c.75.92-13.04,12.9-31.13,27.05-.97.76-2.39.6-3.17-.35h0c-.78-.95-.62-2.34.36-3.09,18.16-14.06,33.19-24.53,33.94-23.61Z" fill="#3c6fb7"/>
    <path d="M140.71,142.2c.52,1.06-15.66,9.74-36.52,19.62-1.12.53-2.47.07-3.01-1.03h0c-.54-1.1-.07-2.41,1.05-2.94,20.91-9.77,37.95-16.71,38.48-15.65Z" fill="#3c6fb7"/>
    <path d="M140.63,141.96c.27,1.15-17.49,6.1-40.08,11.2-1.21.27-2.42-.47-2.7-1.65h0c-.28-1.19.48-2.37,1.7-2.63,22.62-4.98,40.81-8.06,41.08-6.91Z" fill="#3c6fb7"/>
    <path d="M140.6,141.72c0,1.18-18.44,2.15-41.63,2.21-1.24,0-2.25-.98-2.25-2.2h0c0-1.22,1.01-2.2,2.25-2.2,23.19.05,41.63,1.01,41.63,2.18Z" fill="#3c6fb7"/>
    <path d="M140.63,141.47c-.27,1.15-18.47-1.91-41.09-6.88-1.21-.27-1.97-1.45-1.69-2.63h0c.28-1.19,1.49-1.93,2.7-1.66,22.59,5.08,40.35,10.02,40.08,11.17Z" fill="#3c6fb7"/>
    <path d="M140.72,141.24c-.52,1.06-17.57-5.87-38.49-15.62-1.12-.52-1.59-1.84-1.05-2.93h0c.54-1.1,1.89-1.56,3.01-1.03,20.87,9.86,37.06,18.53,36.53,19.59Z" fill="#3c6fb7"/>
    <path d="M140.86,141.03c-.75.92-15.79-9.54-33.96-23.59-.97-.75-1.13-2.14-.36-3.09h0c.78-.95,2.2-1.11,3.17-.35,18.1,14.14,31.9,26.11,31.15,27.03Z" fill="#3c6fb7"/>
    <path d="M141.04,140.86c-.94.73-13.22-12.73-27.73-30.37-.78-.95-.62-2.33.36-3.09h0c.98-.76,2.4-.6,3.17.35,14.42,17.72,25.15,32.38,24.2,33.11Z" fill="#3c6fb7"/>
    <path d="M141.25,140.73c-1.09.51-9.98-15.28-20.11-35.63-.54-1.09-.07-2.41,1.05-2.93h0c1.12-.53,2.47-.07,3.01,1.03,10.01,20.4,17.13,37.02,16.04,37.54Z" fill="#3c6fb7"/>
    <path d="M141.49,140.65c-1.18.26-6.25-17.06-11.48-39.1-.28-1.18.48-2.36,1.7-2.63h0c1.22-.27,2.43.47,2.7,1.65,5.11,22.06,8.26,39.81,7.08,40.08Z" fill="#3c6fb7"/>
    <path d="M141.75,140.63c-1.21,0-2.2-17.99-2.27-40.61,0-1.21,1.01-2.2,2.25-2.2h0c1.25,0,2.26.99,2.26,2.2-.05,22.62-1.03,40.61-2.24,40.61Z" fill="#3c6fb7"/>
    <path d="M142,140.66c-1.18-.26,1.96-18.02,7.05-40.08.27-1.18,1.48-1.92,2.7-1.65h0c1.22.27,1.98,1.45,1.7,2.63-5.21,22.04-10.27,39.37-11.45,39.1Z" fill="#3c6fb7"/>
    <path d="M142.24,140.74c-1.09-.51,6.02-17.14,16.02-37.55.54-1.09,1.88-1.55,3.01-1.03h0c1.12.53,1.6,1.84,1.05,2.94-10.11,20.36-18.99,36.15-20.08,35.64Z" fill="#3c6fb7"/>
    <path d="M142.45,140.88c-.94-.74,9.78-15.4,24.18-33.13.77-.95,2.19-1.11,3.17-.35h0c.97.76,1.14,2.14.36,3.09-14.5,17.65-26.76,31.12-27.7,30.39Z" fill="#3c6fb7"/>
    <path d="M142.62,141.06c-.75-.92,13.04-12.9,31.13-27.05.97-.76,2.39-.6,3.17.35h0c.78.95.62,2.34-.36,3.09-18.16,14.06-33.19,24.53-33.94,23.61Z" fill="#3c6fb7"/>
    <path d="M142.76,141.27c-.52-1.06,15.66-9.74,36.52-19.62,1.12-.53,2.47-.07,3.01,1.03h0c.54,1.1.07,2.41-1.05,2.94-20.91,9.77-37.95,16.71-38.48,15.65Z" fill="#3c6fb7"/>
    <path d="M142.84,141.5c-.27-1.15,17.49-6.1,40.08-11.2,1.21-.27,2.42.47,2.7,1.65h0c.28,1.19-.48,2.37-1.7,2.63-22.62,4.98-40.81,8.06-41.08,6.91Z" fill="#3c6fb7"/>
    <path d="M142.86,141.75c0-1.18,18.44-2.15,41.63-2.21,1.24,0,2.25.98,2.25,2.2h0c0,1.22-1.01,2.2-2.25,2.2-23.19-.05-41.63-1.01-41.63-2.18Z" fill="#3c6fb7"/>
    <path d="M142.83,141.99c.27-1.15,18.47,1.91,41.09,6.88,1.21.27,1.97,1.45,1.69,2.63h0c-.28,1.19-1.49,1.93-2.7,1.66-22.59-5.08-40.35-10.02-40.08-11.17Z" fill="#3c6fb7"/>
    <path d="M142.75,142.22c.52-1.06,17.57,5.87,38.49,15.62,1.12.52,1.59,1.84,1.05,2.93h0c-.54,1.1-1.89,1.56-3.01,1.03-20.87-9.86-37.06-18.53-36.53-19.59Z" fill="#3c6fb7"/>
    <path d="M142.61,142.43c.75-.92,15.79,9.54,33.96,23.59.97.75,1.13,2.14.36,3.09h0c-.78.95-2.2,1.11-3.17.35-18.1-14.14-31.9-26.11-31.15-27.03Z" fill="#3c6fb7"/>
    <path d="M142.42,142.6c.94-.73,13.22,12.73,27.73,30.37.78.95.62,2.33-.36,3.09h0c-.98.76-2.4.6-3.17-.35-14.42-17.72-25.15-32.38-24.2-33.11Z" fill="#3c6fb7"/>
    <path d="M142.21,142.73c1.09-.51,9.98,15.28,20.11,35.63.54,1.09.07,2.41-1.05,2.93h0c-1.12.53-2.47.07-3.01-1.03-10.01-20.4-17.13-37.02-16.04-37.54Z" fill="#3c6fb7"/>
    <path d="M141.97,142.81c1.18-.26,6.25,17.06,11.48,39.1.28,1.18-.48,2.36-1.7,2.63h0c-1.22.27-2.43-.47-2.7-1.65-5.11-22.06-8.26-39.81-7.08-40.08Z" fill="#3c6fb7"/>
  </g>
  <g>
    <path d="M141.73,142.07c.37,0,.67,5.5.69,12.41,0,.37-.31.67-.69.67h0c-.38,0-.69-.3-.69-.67.02-6.91.32-12.41.68-12.41Z" fill="#fff"/>
    <path d="M141.65,142.06c.36.08-.6,5.5-2.15,12.25-.08.36-.45.59-.82.5h0c-.37-.08-.6-.44-.52-.8,1.59-6.73,3.14-12.03,3.5-11.95Z" fill="#fff"/>
    <path d="M141.58,142.03c.33.16-1.84,5.24-4.89,11.47-.16.33-.58.47-.92.31h0c-.34-.16-.49-.56-.32-.9,3.09-6.22,5.8-11.04,6.13-10.89Z" fill="#fff"/>
    <path d="M141.51,141.99c.29.22-2.99,4.71-7.39,10.12-.24.29-.67.34-.97.11h0c-.3-.23-.35-.66-.11-.94,4.43-5.39,8.18-9.51,8.46-9.28Z" fill="#fff"/>
    <path d="M141.46,141.94c.23.28-3.99,3.94-9.51,8.26-.3.23-.73.18-.97-.11h0c-.24-.29-.19-.71.11-.94,5.55-4.3,10.14-7.5,10.37-7.21Z" fill="#fff"/>
    <path d="M141.42,141.88c.16.32-4.78,2.98-11.16,5.99-.34.16-.75.02-.92-.31h0c-.17-.33-.02-.74.32-.9,6.39-2.98,11.59-5.11,11.75-4.78Z" fill="#fff"/>
    <path d="M141.39,141.8c.08.35-5.34,1.86-12.24,3.42-.37.08-.74-.14-.82-.51h0c-.08-.36.15-.72.52-.8,6.91-1.52,12.47-2.46,12.55-2.11Z" fill="#fff"/>
    <path d="M141.39,141.73c0,.36-5.63.66-12.72.68-.38,0-.69-.3-.69-.67h0c0-.37.31-.67.69-.67,7.08.02,12.72.31,12.72.67Z" fill="#fff"/>
    <path d="M141.4,141.65c-.08.35-5.64-.58-12.55-2.1-.37-.08-.6-.44-.52-.8h0c.08-.36.45-.59.82-.51,6.9,1.55,12.33,3.06,12.25,3.41Z" fill="#fff"/>
    <path d="M141.42,141.58c-.16.32-5.37-1.79-11.76-4.77-.34-.16-.49-.56-.32-.9h0c.17-.33.58-.48.92-.31,6.38,3.01,11.32,5.66,11.16,5.98Z" fill="#fff"/>
    <path d="M141.46,141.52c-.23.28-4.82-2.91-10.38-7.21-.3-.23-.35-.65-.11-.94h0c.24-.29.67-.34.97-.11,5.53,4.32,9.75,7.98,9.52,8.26Z" fill="#fff"/>
    <path d="M141.52,141.47c-.29.22-4.04-3.89-8.47-9.28-.24-.29-.19-.71.11-.94h0c.3-.23.73-.18.97.11,4.4,5.41,7.68,9.89,7.39,10.12Z" fill="#fff"/>
    <path d="M141.59,141.43c-.33.16-3.05-4.67-6.14-10.88-.17-.33-.02-.74.32-.9h0c.34-.16.76-.02.92.31,3.06,6.23,5.23,11.31,4.9,11.47Z" fill="#fff"/>
    <path d="M141.66,141.4c-.36.08-1.91-5.21-3.51-11.95-.09-.36.15-.72.52-.8h0c.37-.08.74.14.83.51,1.56,6.74,2.52,12.16,2.16,12.24Z" fill="#fff"/>
    <path d="M141.74,141.4c-.37,0-.67-5.5-.69-12.41,0-.37.31-.67.69-.67h0c.38,0,.69.3.69.67-.02,6.91-.32,12.41-.68,12.41Z" fill="#fff"/>
    <path d="M141.81,141.4c-.36-.08.6-5.5,2.15-12.25.08-.36.45-.59.82-.5h0c.37.08.6.44.52.8-1.59,6.73-3.14,12.03-3.5,11.95Z" fill="#fff"/>
    <path d="M141.89,141.43c-.33-.16,1.84-5.24,4.89-11.47.16-.33.58-.47.92-.31h0c.34.16.49.56.32.9-3.09,6.22-5.8,11.04-6.13,10.89Z" fill="#fff"/>
    <path d="M141.95,141.47c-.29-.22,2.99-4.71,7.39-10.12.24-.29.67-.34.97-.11h0c.3.23.35.66.11.94-4.43,5.39-8.18,9.51-8.46,9.28Z" fill="#fff"/>
    <path d="M142,141.53c-.23-.28,3.99-3.94,9.51-8.26.3-.23.73-.18.97.11h0c.24.29.19.71-.11.94-5.55,4.3-10.14,7.5-10.37,7.21Z" fill="#fff"/>
    <path d="M142.04,141.59c-.16-.32,4.78-2.98,11.16-5.99.34-.16.75-.02.92.31h0c.17.33.02.74-.32.9-6.39,2.98-11.59,5.11-11.75,4.78Z" fill="#fff"/>
    <path d="M142.07,141.66c-.08-.35,5.34-1.86,12.24-3.42.37-.08.74.14.82.51h0c.08.36-.15.72-.52.8-6.91,1.52-12.47,2.46-12.55,2.11Z" fill="#fff"/>
    <path d="M142.08,141.74c0-.36,5.63-.66,12.72-.68.38,0,.69.3.69.67h0c0,.37-.31.67-.69.67-7.08-.02-12.72-.31-12.72-.67Z" fill="#fff"/>
    <path d="M142.07,141.81c.08-.35,5.64.58,12.55,2.1.37.08.6.44.52.8h0c-.08.36-.45.59-.82.51-6.9-1.55-12.33-3.06-12.25-3.41Z" fill="#fff"/>
    <path d="M142.04,141.88c.16-.32,5.37,1.79,11.76,4.77.34.16.49.56.32.9h0c-.17.33-.58.48-.92.31-6.38-3.01-11.32-5.66-11.16-5.98Z" fill="#fff"/>
    <path d="M142,141.95c.23-.28,4.82,2.91,10.38,7.21.3.23.35.65.11.94h0c-.24.29-.67.34-.97.11-5.53-4.32-9.75-7.98-9.52-8.26Z" fill="#fff"/>
    <path d="M141.94,142c.29-.22,4.04,3.89,8.47,9.28.24.29.19.71-.11.94h0c-.3.23-.73.18-.97-.11-4.4-5.41-7.68-9.89-7.39-10.12Z" fill="#fff"/>
    <path d="M141.88,142.04c.33-.16,3.05,4.67,6.14,10.88.17.33.02.74-.32.9h0c-.34.16-.76.02-.92-.31-3.06-6.23-5.23-11.31-4.9-11.47Z" fill="#fff"/>
    <path d="M141.8,142.06c.36-.08,1.91,5.21,3.51,11.95.09.36-.15.72-.52.8h0c-.37.08-.74-.14-.83-.51-1.56-6.74-2.52-12.16-2.16-12.24Z" fill="#fff"/>
  </g>
</svg>