<?xml version="1.0" encoding="UTF-8"?>
<svg id="a" data-name="图层 1" xmlns="http://www.w3.org/2000/svg" width="100mm" height="100mm" viewBox="0 0 283.46 283.46">
  <path d="M172.34,79.84c4.18,1.96-2.21,20.21,1.27,22.91,3.6,2.79,20.4-7.34,23.19-3.92,2.84,3.48-11.03,17.24-9.07,21.21s21.6,1.96,22.61,6.28c1,4.3-17.57,10.87-17.57,15.32,0,4.38,18.57,10.86,17.54,15.23-1,4.24-20.61,2.28-22.63,6.36-2.02,4.08,11.8,17.77,9.02,21.17-2.87,3.52-19.67-6.55-23.18-3.82s2.74,20.99-1.34,22.91c-4.1,1.93-14.72-14.26-19.15-13.26-4.41.99-6.8,20.12-11.37,20.13-4.49.01-6.84-19.08-11.33-20.07-4.34-.96-15.01,15.29-19.19,13.33-4.18-1.96,2.21-20.21-1.27-22.91-3.6-2.79-20.4,7.34-23.19,3.92-2.84-3.48,11.03-17.24,9.07-21.21-1.96-3.99-21.6-1.96-22.61-6.28-1-4.3,17.57-10.87,17.57-15.32,0-4.38-18.57-10.86-17.54-15.23,1-4.24,20.61-2.28,22.63-6.36,2.02-4.08-11.8-17.77-9.02-21.17,2.87-3.52,19.67,6.55,23.18,3.82,3.58-2.78-2.74-20.99,1.34-22.91s14.72,14.26,19.15,13.26c4.41-.99,6.8-20.12,11.37-20.13,4.49-.01,6.84,19.08,11.33,20.07,4.34.96,15.01-15.29,19.19-13.33Z" fill="#243e96"/>
</svg>