<?xml version="1.0" encoding="UTF-8"?>
<svg id="a" data-name="图层 1" xmlns="http://www.w3.org/2000/svg" width="100mm" height="100mm" viewBox="0 0 283.46 283.46">
  <path d="M112.74,189.42c-1.26-.76-13.94,17.8-28.66,41.87-.79,1.29-.38,2.98.92,3.76h0c1.3.78,2.99.37,3.77-.93,14.6-24.15,25.23-43.94,23.97-44.7Z" fill="#4f82c3"/>
  <path d="M94.85,172.16c-.8-1.23-20.31,10.01-44.06,25.33-1.27.82-1.63,2.52-.81,3.78h0c.83,1.27,2.53,1.62,3.8.79,23.67-15.45,41.87-28.68,41.06-29.91Z" fill="#4f82c3"/>
  <path d="M86.24,148.88c-.19-1.45-22.66.24-50.72,3.78-1.5.19-2.57,1.56-2.37,3.06h0c.19,1.5,1.57,2.56,3.08,2.36,28.05-3.68,50.21-7.74,50.02-9.19Z" fill="#4f82c3"/>
  <path d="M88.63,124.18c.46-1.39-20.51-9.58-47.34-18.53-1.44-.48-2.99.3-3.47,1.73h0c-.48,1.43.31,2.98,1.75,3.46,26.88,8.81,48.61,14.73,49.07,13.34Z" fill="#4f82c3"/>
  <path d="M101.53,102.96c1.02-1.05-14.31-17.5-34.59-37.16-1.09-1.05-2.83-1.03-3.88.06h0c-1.05,1.09-1.02,2.82.07,3.87,20.38,19.55,37.38,34.29,38.4,33.24Z" fill="#4f82c3"/>
  <path d="M122.4,89.42c1.38-.51-5.27-21.96-14.98-48.43-.52-1.42-2.1-2.15-3.52-1.63h0c-1.42.52-2.15,2.1-1.62,3.51,9.85,26.43,18.75,47.05,20.13,46.55Z" fill="#4f82c3"/>
  <path d="M147.09,86.24c1.46.14,4.81-22.06,7.59-50.12.15-1.5-.96-2.84-2.47-2.99h0c-1.51-.14-2.85.96-2.99,2.46-2.64,28.07-3.6,50.5-2.13,50.64Z" fill="#4f82c3"/>
  <path d="M170.72,94.05c1.26.76,13.94-17.8,28.66-41.87.79-1.29.38-2.98-.92-3.76h0c-1.3-.78-2.99-.37-3.77.93-14.6,24.15-25.23,43.94-23.97,44.7Z" fill="#4f82c3"/>
  <path d="M188.62,111.31c.8,1.23,20.31-10.01,44.06-25.33,1.27-.82,1.63-2.52.81-3.78h0c-.83-1.27-2.53-1.62-3.8-.79-23.67,15.45-41.87,28.68-41.06,29.91Z" fill="#4f82c3"/>
  <path d="M197.22,134.59c.19,1.45,22.66-.24,50.72-3.78,1.5-.19,2.57-1.56,2.37-3.06h0c-.19-1.5-1.57-2.56-3.08-2.36-28.05,3.68-50.21,7.74-50.02,9.19Z" fill="#4f82c3"/>
  <path d="M194.84,159.29c-.46,1.39,20.51,9.58,47.34,18.53,1.44.48,2.99-.3,3.47-1.73h0c.48-1.43-.31-2.98-1.75-3.46-26.88-8.81-48.61-14.73-49.07-13.34Z" fill="#4f82c3"/>
  <path d="M181.93,180.51c-1.02,1.05,14.31,17.5,34.59,37.16,1.09,1.05,2.83,1.03,3.88-.06h0c1.05-1.09,1.02-2.82-.07-3.87-20.38-19.55-37.38-34.29-38.4-33.24Z" fill="#4f82c3"/>
  <path d="M161.07,194.05c-1.38.51,5.27,21.96,14.98,48.43.52,1.42,2.1,2.15,3.52,1.63h0c1.42-.52,2.15-2.1,1.62-3.51-9.85-26.43-18.75-47.05-20.13-46.55Z" fill="#4f82c3"/>
  <path d="M136.37,197.23c-1.46-.14-4.81,22.06-7.59,50.12-.15,1.5.96,2.84,2.47,2.99h0c1.51.14,2.85-.96,2.99-2.46,2.64-28.07,3.6-50.5,2.13-50.64Z" fill="#4f82c3"/>
</svg>