<?xml version="1.0" encoding="UTF-8"?>
<svg id="a" data-name="图层 1" xmlns="http://www.w3.org/2000/svg" width="100mm" height="100mm" viewBox="0 0 283.46 283.46">
  <g>
    <path d="M141.41,144.87c-1.06-.11-3.6,16-5.75,36.37-.12,1.09.68,2.07,1.78,2.18h0c1.1.11,2.08-.68,2.19-1.78,2.05-20.37,2.85-36.66,1.79-36.77Z" fill="#3c6fb7"/>
    <path d="M140.72,144.72c-1.01-.34-7.08,14.8-13.73,34.18-.36,1.04.2,2.17,1.24,2.52h0c1.04.35,2.18-.21,2.53-1.25,6.55-19.41,10.97-35.11,9.96-35.45Z" fill="#3c6fb7"/>
    <path d="M140.07,144.42c-.91-.56-10.21,12.86-21.02,30.28-.58.93-.29,2.16.65,2.73h0c.94.57,2.17.28,2.74-.66,10.72-17.47,18.54-31.8,17.63-32.35Z" fill="#3c6fb7"/>
    <path d="M139.52,143.99c-.76-.74-12.83,10.27-27.25,24.86-.77.78-.76,2.04.02,2.81h0c.79.77,2.05.75,2.82-.03,14.35-14.66,25.17-26.89,24.41-27.64Z" fill="#3c6fb7"/>
    <path d="M139.07,143.44c-.58-.89-14.8,7.17-32.12,18.19-.93.59-1.2,1.82-.6,2.74h0c.6.92,1.83,1.19,2.76.6,17.26-11.11,30.55-20.64,29.97-21.53Z" fill="#3c6fb7"/>
    <path d="M138.75,142.8c-.36-1-16.03,3.71-35.38,10.61-1.04.37-1.58,1.51-1.2,2.54h0c.37,1.03,1.52,1.57,2.55,1.19,19.31-7,34.39-13.35,34.03-14.35Z" fill="#3c6fb7"/>
    <path d="M138.59,142.12c-.13-1.06-16.46.06-36.86,2.5-1.09.13-1.87,1.12-1.74,2.21h0c.13,1.09,1.13,1.86,2.22,1.73,20.39-2.54,36.51-5.39,36.38-6.44Z" fill="#3c6fb7"/>
    <path d="M138.58,141.41c.11-1.06-16.06-3.59-36.5-5.73-1.1-.12-2.08.68-2.19,1.77h0c-.11,1.09.69,2.07,1.78,2.18,20.45,2.04,36.79,2.84,36.9,1.79Z" fill="#3c6fb7"/>
    <path d="M138.73,140.72c.34-1.01-14.86-7.06-34.3-13.68-1.04-.36-2.18.2-2.53,1.24h0c-.35,1.04.21,2.17,1.25,2.52,19.48,6.52,35.24,10.93,35.58,9.92Z" fill="#3c6fb7"/>
    <path d="M139.03,140.08c.56-.91-12.91-10.17-30.38-20.94-.94-.58-2.17-.29-2.74.65h0c-.58.93-.28,2.16.66,2.73,17.53,10.68,31.91,18.47,32.47,17.56Z" fill="#3c6fb7"/>
    <path d="M139.47,139.52c.75-.76-10.31-12.78-24.95-27.16-.78-.77-2.05-.76-2.82.02h0c-.77.78-.76,2.04.03,2.81,14.71,14.3,26.99,25.08,27.73,24.32Z" fill="#3c6fb7"/>
    <path d="M140.02,139.08c.9-.57-7.2-14.75-18.26-32.01-.59-.93-1.83-1.2-2.75-.6h0c-.93.59-1.19,1.82-.6,2.75,11.15,17.2,20.71,30.44,21.61,29.86Z" fill="#3c6fb7"/>
    <path d="M140.66,138.76c1-.36-3.72-15.97-10.65-35.25-.37-1.03-1.51-1.57-2.55-1.2h0c-1.04.37-1.57,1.51-1.2,2.54,7.03,19.24,13.39,34.27,14.4,33.9Z" fill="#3c6fb7"/>
    <path d="M141.35,138.6c1.06-.13-.06-16.4-2.51-36.73-.13-1.09-1.13-1.87-2.22-1.73h0c-1.09.13-1.87,1.13-1.73,2.22,2.55,20.32,5.4,36.38,6.46,36.25Z" fill="#3c6fb7"/>
    <path d="M142.06,138.59c1.06.11,3.6-16,5.75-36.37.12-1.09-.68-2.07-1.78-2.18h0c-1.1-.11-2.08.68-2.19,1.78-2.05,20.37-2.85,36.66-1.79,36.77Z" fill="#3c6fb7"/>
    <path d="M142.75,138.74c1.01.34,7.08-14.8,13.73-34.18.36-1.04-.2-2.17-1.24-2.52h0c-1.04-.35-2.18.21-2.53,1.25-6.55,19.41-10.97,35.11-9.96,35.45Z" fill="#3c6fb7"/>
    <path d="M143.39,139.04c.91.56,10.21-12.86,21.02-30.28.58-.93.29-2.16-.65-2.73h0c-.94-.57-2.17-.28-2.74.66-10.72,17.47-18.54,31.8-17.63,32.35Z" fill="#3c6fb7"/>
    <path d="M143.95,139.48c.76.74,12.83-10.27,27.25-24.86.77-.78.76-2.04-.02-2.81h0c-.79-.77-2.05-.75-2.82.03-14.35,14.66-25.17,26.89-24.41,27.64Z" fill="#3c6fb7"/>
    <path d="M144.4,140.03c.58.89,14.8-7.17,32.12-18.19.93-.59,1.2-1.82.6-2.74h0c-.6-.92-1.83-1.19-2.76-.6-17.26,11.11-30.55,20.64-29.97,21.53Z" fill="#3c6fb7"/>
    <path d="M144.71,140.66c.36,1,16.03-3.71,35.38-10.61,1.04-.37,1.58-1.51,1.2-2.54h0c-.37-1.03-1.52-1.57-2.55-1.19-19.31,7-34.39,13.35-34.03,14.35Z" fill="#3c6fb7"/>
    <path d="M144.88,141.35c.13,1.06,16.46-.06,36.86-2.5,1.09-.13,1.87-1.12,1.74-2.21h0c-.13-1.09-1.13-1.86-2.22-1.73-20.39,2.54-36.51,5.39-36.38,6.44Z" fill="#3c6fb7"/>
    <path d="M144.88,142.05c-.11,1.06,16.06,3.59,36.5,5.73,1.1.12,2.08-.68,2.19-1.77h0c.11-1.09-.69-2.07-1.78-2.18-20.45-2.04-36.79-2.84-36.9-1.79Z" fill="#3c6fb7"/>
    <path d="M144.73,142.75c-.34,1.01,14.86,7.06,34.3,13.68,1.04.36,2.18-.2,2.53-1.24h0c.35-1.04-.21-2.17-1.25-2.52-19.48-6.52-35.24-10.93-35.58-9.92Z" fill="#3c6fb7"/>
    <path d="M144.43,143.38c-.56.91,12.91,10.17,30.38,20.94.94.58,2.17.29,2.74-.65h0c.58-.93.28-2.16-.66-2.73-17.53-10.68-31.91-18.47-32.47-17.56Z" fill="#3c6fb7"/>
    <path d="M143.99,143.94c-.75.76,10.31,12.78,24.95,27.16.78.77,2.05.76,2.82-.02h0c.77-.78.76-2.04-.03-2.81-14.71-14.3-26.99-25.08-27.73-24.32Z" fill="#3c6fb7"/>
    <path d="M143.44,144.39c-.9.57,7.2,14.75,18.26,32.01.59.93,1.83,1.2,2.75.6h0c.93-.59,1.19-1.82.6-2.75-11.15-17.2-20.71-30.44-21.61-29.86Z" fill="#3c6fb7"/>
    <path d="M142.81,144.7c-1,.36,3.72,15.97,10.65,35.25.37,1.03,1.51,1.57,2.55,1.2h0c1.04-.37,1.57-1.51,1.2-2.54-7.03-19.24-13.39-34.27-14.4-33.9Z" fill="#3c6fb7"/>
    <path d="M142.12,144.86c-1.06.13.06,16.4,2.51,36.73.13,1.09,1.13,1.87,2.22,1.73h0c1.09-.13,1.87-1.13,1.73-2.22-2.55-20.32-5.4-36.38-6.46-36.25Z" fill="#3c6fb7"/>
  </g>
  <g>
    <path d="M141.61,142.97c-.42-.04-1.41,6.29-2.26,14.29-.05.43.27.81.7.86h0c.43.04.82-.27.86-.7.81-8.01,1.12-14.41.7-14.45Z" fill="#fff"/>
    <path d="M141.33,142.91c-.4-.13-2.78,5.82-5.4,13.43-.14.41.08.85.49.99h0c.41.14.86-.08.99-.49,2.57-7.63,4.31-13.8,3.91-13.93Z" fill="#fff"/>
    <path d="M141.08,142.79c-.36-.22-4.01,5.05-8.26,11.9-.23.37-.11.85.26,1.07h0c.37.23.85.11,1.08-.26,4.21-6.87,7.28-12.5,6.93-12.72Z" fill="#fff"/>
    <path d="M140.86,142.62c-.3-.29-5.04,4.04-10.71,9.77-.3.31-.3.8,0,1.1h0c.31.3.81.3,1.11-.01,5.64-5.76,9.89-10.57,9.59-10.86Z" fill="#fff"/>
    <path d="M140.69,142.4c-.23-.35-5.82,2.82-12.62,7.15-.36.23-.47.72-.24,1.08h0c.23.36.72.47,1.08.23,6.79-4.37,12.01-8.11,11.78-8.46Z" fill="#fff"/>
    <path d="M140.56,142.15c-.14-.39-6.3,1.46-13.9,4.17-.41.15-.62.59-.47,1h0c.15.41.6.62,1,.47,7.59-2.75,13.52-5.24,13.37-5.64Z" fill="#fff"/>
    <path d="M140.5,141.88c-.05-.41-6.47.03-14.49.98-.43.05-.74.44-.68.87h0c.05.43.44.73.87.68,8.01-1,14.35-2.12,14.3-2.53Z" fill="#fff"/>
    <path d="M140.49,141.61c.04-.42-6.31-1.41-14.34-2.25-.43-.05-.82.27-.86.7h0c-.04.43.27.81.7.86,8.04.8,14.46,1.12,14.5.7Z" fill="#fff"/>
    <path d="M140.55,141.33c.13-.4-5.84-2.77-13.48-5.38-.41-.14-.86.08-.99.49h0c-.14.41.08.85.49.99,7.66,2.56,13.85,4.3,13.98,3.9Z" fill="#fff"/>
    <path d="M140.67,141.08c.22-.36-5.07-4-11.94-8.23-.37-.23-.85-.11-1.08.25h0c-.23.37-.11.85.26,1.07,6.89,4.2,12.54,7.26,12.76,6.9Z" fill="#fff"/>
    <path d="M140.84,140.86c.29-.3-4.05-5.02-9.8-10.67-.31-.3-.81-.3-1.11,0h0c-.3.31-.3.8.01,1.1,5.78,5.62,10.61,9.86,10.9,9.56Z" fill="#fff"/>
    <path d="M141.06,140.69c.35-.23-2.83-5.8-7.17-12.58-.23-.36-.72-.47-1.08-.24h0c-.36.23-.47.72-.23,1.08,4.38,6.76,8.14,11.96,8.49,11.74Z" fill="#fff"/>
    <path d="M141.31,140.57c.39-.14-1.46-6.28-4.19-13.85-.15-.41-.6-.62-1-.47h0c-.41.15-.62.59-.47,1,2.76,7.56,5.26,13.47,5.66,13.33Z" fill="#fff"/>
    <path d="M141.58,140.5c.42-.05-.03-6.44-.99-14.44-.05-.43-.44-.73-.87-.68h0c-.43.05-.74.44-.68.87,1,7.99,2.12,14.3,2.54,14.25Z" fill="#fff"/>
    <path d="M141.86,140.5c.42.04,1.41-6.29,2.26-14.29.05-.43-.27-.81-.7-.86h0c-.43-.04-.82.27-.86.7-.81,8.01-1.12,14.41-.7,14.45Z" fill="#fff"/>
    <path d="M142.13,140.56c.4.13,2.78-5.82,5.4-13.43.14-.41-.08-.85-.49-.99h0c-.41-.14-.86.08-.99.49-2.57,7.63-4.31,13.8-3.91,13.93Z" fill="#fff"/>
    <path d="M142.38,140.68c.36.22,4.01-5.05,8.26-11.9.23-.37.11-.85-.26-1.07h0c-.37-.23-.85-.11-1.08.26-4.21,6.87-7.28,12.5-6.93,12.72Z" fill="#fff"/>
    <path d="M142.6,140.85c.3.29,5.04-4.04,10.71-9.77.3-.31.3-.8,0-1.1h0c-.31-.3-.81-.3-1.11.01-5.64,5.76-9.89,10.57-9.59,10.86Z" fill="#fff"/>
    <path d="M142.78,141.06c.23.35,5.82-2.82,12.62-7.15.36-.23.47-.72.24-1.08h0c-.23-.36-.72-.47-1.08-.23-6.79,4.37-12.01,8.11-11.78,8.46Z" fill="#fff"/>
    <path d="M142.9,141.31c.14.39,6.3-1.46,13.9-4.17.41-.15.62-.59.47-1h0c-.15-.41-.6-.62-1-.47-7.59,2.75-13.52,5.24-13.37,5.64Z" fill="#fff"/>
    <path d="M142.97,141.58c.05.41,6.47-.03,14.49-.98.43-.05.74-.44.68-.87h0c-.05-.43-.44-.73-.87-.68-8.01,1-14.35,2.12-14.3,2.53Z" fill="#fff"/>
    <path d="M142.97,141.86c-.04.42,6.31,1.41,14.34,2.25.43.05.82-.27.86-.7h0c.04-.43-.27-.81-.7-.86-8.04-.8-14.46-1.12-14.5-.7Z" fill="#fff"/>
    <path d="M142.91,142.13c-.13.4,5.84,2.77,13.48,5.38.41.14.86-.08.99-.49h0c.14-.41-.08-.85-.49-.99-7.66-2.56-13.85-4.3-13.98-3.9Z" fill="#fff"/>
    <path d="M142.79,142.38c-.22.36,5.07,4,11.94,8.23.37.23.85.11,1.08-.25h0c.23-.37.11-.85-.26-1.07-6.89-4.2-12.54-7.26-12.76-6.9Z" fill="#fff"/>
    <path d="M142.62,142.6c-.29.3,4.05,5.02,9.8,10.67.31.3.81.3,1.11,0h0c.3-.31.3-.8-.01-1.1-5.78-5.62-10.61-9.86-10.9-9.56Z" fill="#fff"/>
    <path d="M142.4,142.78c-.35.23,2.83,5.8,7.17,12.58.23.36.72.47,1.08.24h0c.36-.23.47-.72.23-1.08-4.38-6.76-8.14-11.96-8.49-11.74Z" fill="#fff"/>
    <path d="M142.15,142.9c-.39.14,1.46,6.28,4.19,13.85.15.41.6.62,1,.47h0c.41-.15.62-.59.47-1-2.76-7.56-5.26-13.47-5.66-13.33Z" fill="#fff"/>
    <path d="M141.88,142.96c-.42.05.03,6.44.99,14.44.05.43.44.73.87.68h0c.43-.05.74-.44.68-.87-1-7.99-2.12-14.3-2.54-14.25Z" fill="#fff"/>
  </g>
</svg>